<?xml version="1.0" encoding="utf-8"?>
<!-- Generator: Adobe Illustrator 19.1.0, SVG Export Plug-In . SVG Version: 6.00 Build 0)  -->
<!DOCTYPE svg PUBLIC "-//W3C//DTD SVG 1.1//EN" "http://www.w3.org/Graphics/SVG/1.1/DTD/svg11.dtd">
<svg version="1.1" xmlns="http://www.w3.org/2000/svg" xmlns:xlink="http://www.w3.org/1999/xlink" x="0px" y="0px"
	 viewBox="0 0 40 40" enable-background="new 0 0 40 40" xml:space="preserve">
<g id="Layer_1">
</g>
<g id="Layer_2">
	<path fill="#FFFFFF" d="M18.1,1.1c0.6,0,1.2-0.1,1.8-0.1c1.9-0.1,3.9,0,5.7,0.3c7.6,1.4,14.7,9.2,13.6,17.2
		c-0.2,1.2-0.3,2.3-0.8,3.4c-0.4,1.1-0.9,2.1-1.3,3.1c-0.1,0.3-0.2,0.6-0.4,0.9c-0.4,1-0.8,1.9-1.2,2.9c-0.6,1.3-1.4,2.4-2.5,3.3
		c-0.5,0.4-1.1,0.9-1.6,1.4c-0.4,0.4-0.7,0.7-1.1,1.1c-0.3,0.3-0.6,0.5-0.9,0.6c-0.4,0.1-0.7,0.4-1.1,0.5c-1.1,0.4-2.2,1-3.4,1.3
		c-0.3,0.1-0.5,0.2-0.7,0.4c-0.8,0.4-1.7,0.8-2.6,1c-0.4,0.1-0.8,0.1-1.2,0.1c-0.8-0.1-1.5,0.1-2.2,0.1c-0.7,0-1.4,0.1-2.1,0.2
		c-0.7,0.1-1.3-0.2-1.8-0.7c-0.4-0.4-0.9-0.6-1.4-0.7c-0.5-0.1-1.1-0.2-1.6-0.3c-0.8-0.1-1.5-0.4-2.1-0.8c-3.4-2.4-5-5-6.4-9
		C1.6,23.6,0.3,19.8,0.8,16c0.1-1,0.4-2.1,1-3c0.4-0.6,0.9-1.2,1.4-1.7c2.3-2.6,4.2-5.5,7.1-7.6C12.6,2,15.3,1.3,18.1,1.1"/>
	<path fill="#51BED2" d="M28.4,27.2c-0.3,0-0.6,0-0.8,0c-1.5,0-3,0-4.5,0c-0.2,0-0.3,0-0.5,0c-0.6,0-0.9,0.3-0.9,0.9
		c0,3.2,0,6.4,0,9.6v0.9c-0.2,0.1-0.4,0.1-0.5,0.1c-0.3,0-0.5,0-0.8,0c-0.2,0-0.5-0.1-0.7,0c-0.7,0.1-1.3,0.1-1.9,0
		c-0.3,0-0.7,0-1.1,0c-0.2-0.2-0.1-0.5-0.1-0.7c0-2.9,0-5.7,0-8.6c0-0.2,0-0.5,0-0.7c-0.1-0.5-0.3-0.8-0.8-0.8c-1.2,0-2.3,0-3.5,0
		c-0.2,0-0.5,0-0.8,0c-0.1-1,0-1.9,0-2.8c0-0.9,0-1.9,0-2.8c0.2,0,0.4-0.1,0.6-0.1c1.1,0,2.2,0,3.2,0c0.8,0,1.1-0.2,1.1-1.1
		c0.1-1.5,0.2-2.9,0.4-4.4c0.2-1.2,0.5-2.3,1-3.3c0.3-0.8,0.9-1.4,1.4-2c0.1-0.1,0.3-0.3,0.4-0.3c0.6-0.2,1.2-0.5,1.9-0.5
		c0.8,0,1.5,0,2.2,0.4c0.3,0.2,0.7,0.3,1,0.4c0.7,0.2,1.3,0.5,1.7,1.2c0.2,0.3,0.4,0.5,0.7,0.7c0.4,0.4,0.7,0.8,0.9,1.4
		c0.3,0.8,0.4,1.7,0.6,2.6c0,0.2,0,0.5,0,0.7c0,0.3-0.1,0.6-0.1,0.8c0,0.4-0.2,0.7-0.6,0.7c-0.1,0-0.2,0-0.3,0c-0.6,0-1.2,0-1.9,0.1
		c-0.2,0-0.3,0-0.6,0c0-0.1-0.1-0.3-0.1-0.4c0-0.6,0-1.2,0-1.8c0.1-1.1-0.5-1.4-1.2-1.6c-0.4-0.1-0.8-0.1-1.1,0
		c-0.6,0.1-1,0.5-1.1,1.1c-0.1,0.5-0.1,1-0.1,1.4c0,0.8,0.1,1.7,0.1,2.5c0,0.3,0,0.6,0.2,0.9c0.2,0.2,0.4,0.4,0.6,0.4
		c0.2,0,0.4,0,0.6,0c1.6,0,3.1,0,4.7,0c0.2,0,0.5,0,0.8,0c0.1,0.5,0.1,0.9,0.1,1.3c0,0.5,0,0.9,0,1.4c0,0.4,0,0.9,0,1.3
		C28.5,26.4,28.7,26.8,28.4,27.2"/>
</g>
<g id="Layer_3">
</g>
<g id="Layer_4">
</g>
</svg>
