<?xml version="1.0" encoding="utf-8"?>
<!-- Generator: Adobe Illustrator 19.1.0, SVG Export Plug-In . SVG Version: 6.00 Build 0)  -->
<!DOCTYPE svg PUBLIC "-//W3C//DTD SVG 1.1//EN" "http://www.w3.org/Graphics/SVG/1.1/DTD/svg11.dtd">
<svg version="1.1" id="Layer_1" xmlns="http://www.w3.org/2000/svg" xmlns:xlink="http://www.w3.org/1999/xlink" x="0px" y="0px"
	 viewBox="0 0 752 446.1" enable-background="new 0 0 752 446.1" xml:space="preserve">
<g>
	<g>
		<path fill="#50BDD2" d="M377.4,297.8c-2.9-0.7-5.7-1.1-8.2-2.4c-0.5-0.3-1.2-0.2-1.8-0.3c-0.2-0.8-0.4-1.6-0.6-2.4
			c-0.1-0.4-0.2-0.8-0.1-1.2c0.3-2.8-0.6-5.5-0.9-8.2c-0.1-0.5-0.2-1-0.3-1.4c-0.2-2.5-0.5-5-0.7-7.6c-0.1-1.3-0.2-2.6-0.3-3.9
			c-0.1-0.9-0.1-1.8,0-2.7c0.2-4.2,0.4-8.3,0.7-12.5c0.5-6.4,0.1-12.7,0.2-19.1c0-1.6,0-3.3-0.1-4.9c0-0.4-0.2-0.8-0.3-1.2
			c-0.1-0.4-0.3-0.8-0.3-1.2c0.3-2.8-0.3-5.5-0.4-8.3c-0.2-5.5-0.7-11.1-0.4-16.6c0.1-2.4,0-4.9,0-7.3c0-0.2,0-0.3,0-0.5
			c0.8-5.8,0.2-11.6,0.4-17.4c0.1-1.7-0.2-3.4-0.2-5.1c-0.1-1.4,0.4-2.9-0.3-4.3c-0.1-0.1,0-0.3,0-0.5c0.4-1.9,0-3.7,0-5.6
			c0-3,0.3-6,0.4-9.1c0.1-3.4,0.6-6.8,0.4-10.3c-0.1-0.7-0.1-1.5,0.1-2.2c0.8-2.7,0.6-5.5,0.7-8.3c0.1-3.3,0.1-6.5,0.1-9.8
			c0-1,0.1-2,0.1-2.9c0.1-2.9,0.2-5.7,0.2-8.6c0-0.3,0-0.7,0-1c0.7-4.8,0.1-9.6-0.1-14.4c-0.1-2.9-0.2-5.7,0.2-8.6
			c0.3-2.2,0.3-4.4,0.4-6.6c0.1-1.8,0.2-3.6,0.3-5.4c0-0.6,0.1-1.2,0-1.7c-0.4-2.1,0.1-4.1,0.4-6.1c0.1-0.6,0.3-1.3,0.4-1.9
			c0.6-4.1,3.4-6.7,7.6-6.9c1.1,0,2.1,0,3.2,0c1.9,0,3.8-0.1,5.6-0.1c1.3,0,2.6,0.2,3.7,1c0.5,0.3,1.2,0.4,1.8,0.5
			c0.5,0.1,1,0,1.4,0c0.8,1,1,2.2,0.9,3.3c-0.1,2.7-0.2,5.4-0.3,8.1c-0.3,4.8-0.7,9.6-1,14.4c-0.2,3.6-0.2,7.2-0.3,10.8
			c-0.1,3.8-0.1,7.5-0.6,11.3c-0.5,4.4-0.8,8.8-0.8,13.2c0,4.2-0.2,8.5-0.3,12.7c0,1-0.2,2.1,0.1,3.1c0.6,0.3,0.8-0.1,1.1-0.4
			c0.3-0.6,0.6-1.1,0.9-1.7c1.6-3.1,3.2-6.2,4.8-9.3c0.4-0.8,0.7-1.6,0.9-2.5c0.3-1.3,1-2.6,1.7-3.8c1.2-2.2,2.6-4.3,3.7-6.6
			c0.3-0.6,0.7-1.1,1.1-1.6c0.4-0.7,0.8-1.4,1.3-2.1c0.2-0.4,0.3-0.8,0.6-1.1c1.7-2.1,3-4.5,4.1-6.9c0.4-0.8,0.9-1.5,1.5-2.3
			c1.2-1.7,2.3-3.3,3.2-5.2c0.7-1.4,1.7-2.8,2.7-4c0.8-1,1.4-2,1.8-3.2c0.4-1.2,1-2.3,1.8-3.2c0.2-0.2,0.4-0.5,0.5-0.8
			c0.9-2.4,2.5-4.4,3.8-6.6c0.3-0.5,0.5-1,0.9-1.5c2.3-2.6,3.6-5.8,4.9-8.9c0.3-0.8,0.8-1.4,1.2-2.1c0.2-0.3,0.3-0.6,0.6-0.8
			c1.4-0.7,2.9-1.7,4.4-2.1c2.4-0.6,4.8-0.8,7.2-1.1c2.7-0.4,5.2,0.5,7.7,1.2c0.2,0,0.3,0.1,0.4,0.2c1.1,0.8,2.2,1.7,3.3,2.5
			c0.7,0.5,1,1.2,1.1,2.1c0.1,1.5-0.2,2.9-1,4.2c-0.6,0.9-1.1,1.8-1.8,2.6c-2.1,2.5-3.6,5.5-5.2,8.3c-0.9,1.6-1.9,3.2-3,4.8
			c-2.2,3.3-4.3,6.5-6.5,9.8c-1.1,1.7-2.2,3.4-3.3,5.2c-0.9,1.4-1.7,2.8-2.5,4.2c-0.2,0.4-0.5,0.9-0.8,1.2c-1.7,2-2.9,4.4-4.2,6.6
			c-2.3,4-4.5,8-6.9,11.9c-1.9,3.1-3.4,6.3-4.9,9.6c-0.7,1.6-1.3,3.2-1.3,4.9c0,0.2,0,0.5-0.1,0.7c-0.6,0.9-0.8,1.8-0.7,3
			c0.1,1,0.1,2.1,0.2,3.2c0.4,5.2,1.4,10.4,2.2,15.5c0.2,1.6,0.7,3.2,1,4.8c0.6,3.2,1.1,6.4,1.8,9.6c0.5,2.7,1.2,5.4,1.8,8.1
			c0.9,4.5,2.5,8.8,3.8,13.2c1.3,4.1,2.3,8.2,3.4,12.3c0.4,1.3,0.9,2.5,1.3,3.7c1.5,4.6,3,9.1,4.7,13.7c1,2.7,2.1,5.3,3.1,8
			c1.7,4.3,3.4,8.6,5.2,12.9c0.8,1.8,1.6,3.6,2.5,5.3c1.8,3.7,3.5,7.4,5.5,10.9c2.1,3.8,4,7.7,6,11.5c1.2,2.2,2.4,4.2,3.5,6.4
			c0.6,1.2,1.1,2.6,1.4,3.9c0.3,1.3-0.2,2.5-0.9,3.5c-1.3,1.9-2.7,3.7-4.5,5.2c-1.3,1-2.7,1.8-4.3,2.2c-0.7,0.2-1.4,0.6-2.1,0.8
			c-0.6,0.2-1.2,0.2-1.8-0.4c-0.3-0.4-1-0.8-1.4-0.7c-1.2,0.1-2.1-0.6-2.8-1.2c-3.1-2.8-5.9-5.8-7.8-9.6c-2.1-4.2-4.3-8.4-6.4-12.7
			c-0.6-1.2-1.1-2.4-1.6-3.6c-0.6-1.5-1.3-3-2.1-4.4c-0.9-1.6-1.6-3.4-2.3-5.1c-1.1-2.6-2.2-5.3-3.2-7.9c-0.6-1.5-1.2-3-1.7-4.6
			c-0.7-2.2-1.3-4.4-2.1-6.5c-1.6-4.2-2.5-8.6-3.3-13c-0.3-1.8-1-3.6-1.5-5.4c-0.5-1.6-0.9-3.3-1.4-4.9c-0.9-2.9-1.8-5.8-2.8-8.6
			c-0.9-2.8-2.1-5.5-3-8.3c-0.5-1.7-0.7-3.5-1.2-5.3c-0.9-3.4-1.8-6.8-2.7-10.2c-0.5-1.7-1-3.5-1.4-5.2c-0.7-3.2-1.3-6.4-2.1-9.6
			c-0.2-0.8-0.3-1.8-1.2-2.5c-0.3,0.2-0.7,0.4-0.9,0.7c-0.5,1-1.1,2-1.4,3.1c-0.6,2-1.5,3.8-2.4,5.6c-0.3,0.6-0.6,1.2-0.8,1.8
			c-0.8,2.6-1.6,5.2-2.2,7.8c-0.6,2.2-0.9,4.5-1.3,6.7c-1,5.6-0.9,11.2-1.3,16.9c-0.2,2.4-0.5,4.7-0.8,7c-0.2,1.1-0.2,2.3-0.2,3.4
			c-0.1,4.1,0.4,8.2,0.2,12.2c-0.1,2.1,0,4.3,0.3,6.4c0.7,5,0.7,9.9,1,14.9c0.1,0.9,0.1,1.8,0.2,2.7c0.3,2.7,0.6,5.3,0.9,8
			c0.1,0.6,0.2,1.3,0.2,2c-0.1,4.4,0.5,8.8,0.9,13.2c0.2,2.3,0.4,4.5,0.8,6.8c0.3,1.8,0,3.7-0.2,5.6c-0.1,1.3-0.9,2.2-2.2,2.7
			c-1.1,0.4-2.1,1-3.3,0.9C380.8,296.1,379.1,296.6,377.4,297.8z"/>
		<path fill="#50BDD2" d="M111.2,172.5c-1.3,1-1.7,2.1-2.1,3.1c-0.9,2.5-1.8,5.1-2.7,7.6c-1.8,5-2.7,10.1-3.1,15.3
			c-0.1,2-0.4,3.9-0.6,5.9c-0.1,1.4-0.1,2.8-0.2,4.2c-0.1,2-0.5,4.1-0.5,6.1c0,3.9,0.2,7.8,0.4,11.8c0.1,3.8,0.2,7.5,0.3,11.3
			c0,1,0,2,0.1,2.9c0.2,2.6-0.1,5.2-0.3,7.8c0,0.4-0.2,0.8-0.1,1.2c0.2,4.4-0.5,8.8-0.1,13.2c0.2,1.8-0.2,3.7-0.2,5.6
			c0,5.1,0,10.3,0,15.4c0,3.7,0.1,7.3,0.1,11c0,0.6,0.1,1.3,0.2,1.9c0.3,1.4-0.4,2.4-1.5,3.1c-1.5,0.9-3.1,1.6-4.8,1.7
			c-1.7,0.1-3.4,0.3-5.1,0.4c-1.9,0.2-3.7-0.2-5.5-1c-0.7-0.4-1.2-0.8-1.3-1.6c-0.1-0.6-0.3-1.3-0.3-1.9c0-3.3-0.7-6.5-1.2-9.7
			c-0.3-2-0.4-4.1-0.5-6.1c-0.1-3.1-0.2-6.2-0.1-9.3c0.1-4.2,0.2-8.5,0.3-12.7c0.1-2.8,0.1-5.6,0.2-8.3c0.1-3.2-0.2-6.4-0.5-9.5
			c-0.1-0.9,0-1.8,0-2.7c0.2-6.4-0.4-12.9,0.1-19.3c0.2-2.6,0.5-5.2,0.4-7.8c-0.2-4.3,0.2-8.6,0.3-13c0-2-0.1-4.1-0.1-6.1
			c0-0.4-0.1-0.8-0.1-1.2c0.3-3.3-0.1-6.5-0.2-9.8c-0.2-3.4-0.1-6.8,0.2-10.3c0.4-5.3,0.5-10.6,0.4-15.9c-0.1-6.9,0-13.9,0.1-20.8
			c0-2,0.2-3.9,0.4-5.9c0.4-6.8,0.8-13.5,1.2-20.3c0.2-3.2,0.1-6.4,0.2-9.5c0-1.1,0.1-2.1,0.2-3.2c0.3-3.3,0.5-6.5,0.8-9.8
			c0.1-1,0-2,0.2-2.9c0.5-3.1,0.3-6.2,0.4-9.3c0-1,0.1-2,0.2-2.9c0.2-1.8,0.5-3.6,1.9-5c-0.3-0.3-0.5-0.5-0.7-0.8
			c-0.1-0.2-0.2-0.4-0.3-0.6c0.4-0.8,1-0.9,1.7-0.8c0.8,0.1,1.4-0.2,2-0.7c2-2,4.6-2.5,7.1-2.9c1.9-0.3,3.8,0.4,5.4,1.2
			c2.1,1,3.7,2.6,4.9,4.7c0.7,1.2,1,2.4,0.5,3.8c-0.4,1-0.5,2.1-0.4,3.1c0.1,0.8-0.1,1.6-0.1,2.4c-0.1,1.1-0.2,2.3-0.2,3.4
			c0.1,3.2-0.3,6.4-0.9,9.5c-0.1,0.6-0.2,1.1-0.2,1.7c0.1,2.7-0.1,5.4-0.4,8.1c-0.4,4.3-0.5,8.7-0.6,13c-0.1,4.1-0.1,8.2,0.3,12.3
			c0.1,1.5,0,2.9,0,4.4c0,2-0.1,3.9-0.2,5.9c-0.2,2.2-0.5,4.4-0.7,6.6c-0.1,0.9-0.1,1.8-0.1,2.7c0,0.3,0.3,0.5,0.5,1
			c0.4-0.6,0.9-1,1.1-1.5c1.3-3.8,3.7-7.1,5.2-10.8c3.1-5,5.1-10.6,8.1-15.6c1.4-2.2,2.4-4.6,3.5-7c1.3-2.7,2.8-5.4,4.2-8
			c2.1-3.9,4.1-7.8,6.5-11.5c1.4-2.3,2.6-4.7,3.8-7.1c0.8-1.6,1.6-3.2,2.7-4.6c0.7-1,1.4-2,1.8-3.2c1.3-3.4,3.6-6.2,5.5-9.2
			c1-1.6,2.8-2.2,4.6-2.6c2.3-0.5,4.5-0.6,6.7,0.4c1.6,0.7,3.4,1.2,4.9,2.1c3.3,1.8,4.7,7.1,2.8,10.1c-1.8,2.8-3.3,5.6-5.6,8
			c-3.2,3.3-5.8,7.1-8.1,11c-2.4,4.2-4.7,8.4-6.9,12.7c-1.6,3-3,6-4.5,9c-1.5,2.8-2.9,5.7-4.5,8.4c-1.7,2.8-2.9,5.9-4.3,8.8
			c-1,2.1-1.9,4.3-2.7,6.6c-0.6,1.5-0.9,3.1-1.3,4.7c-0.2,0.7-0.1,1.5-0.4,2.2c-1,2.4-0.6,4.8-0.1,7.2c0.4,1.9,0.8,3.8,1.2,5.8
			c0.2,1,0.4,1.9,0.4,2.9c0.3,5.5,1.2,10.9,1.9,16.3c0.1,1.1,0.3,2.1,0.5,3.1c1.1,5,2.2,10.1,3.3,15.1c0.1,0.6,0.3,1.3,0.6,1.8
			c2.3,4.5,3.9,9.3,4.9,14.3c0.4,1.8,0.5,3.7,1.4,5.4c0.5,4,2.6,7.5,4,11.3c0.6,1.7,1.2,3.4,1.5,5.2c0.7,4.1,2.1,8.1,3.2,12.1
			c1,3.4,3,6.2,4.5,9.2c1.1,2.3,2.5,4.4,3.5,6.7c0.6,1.4,1.4,2.8,2.4,4c1.4,1.8,2.3,3.8,3.1,5.8c0.9,2.3,1.9,4.5,3.2,6.6
			c0.2,0.3,0.4,0.5,0.5,0.8c1.4,3.3,3.3,6.4,5.2,9.5c0.2,0.4,0.4,0.7,0.6,1.1c0.3,0.6,0.3,1.2,0,1.9c-0.5,1-0.9,2.1-1.3,3.2
			c-0.5,1.2-1.1,2.2-2.1,3c-0.5,0.4-1.2,0.9-1.9,1c-1.8,0.3-3.5,0.6-5.3,0.2c-1.2-0.2-2.4-0.1-3.6,0.1c-0.9,0.1-1.5-0.1-2.2-0.7
			c-1.4-1.1-2.5-2.4-3.5-3.8c-2.3-3-4.3-6.1-6.2-9.3c-1.4-2.4-2.5-4.9-3.5-7.5c-1-2.7-2.1-5.3-3.3-7.9c-3.2-6.6-6.3-13.3-9-20.1
			c-1.8-4.8-3.5-9.7-5.2-14.5c-0.9-2.7-1.6-5.5-2.5-8.2c-0.5-1.6-1.2-3.2-1.9-4.8c-1.5-3.6-2.8-7.3-3.5-11.2
			c-0.4-2.3-1.1-4.6-1.9-6.9c-0.9-2.8-1.3-5.7-1.9-8.6c-0.5-2.6-1-5.1-1.5-7.7c-0.5-3-1-6-1.6-8.9c-0.3-1.8-0.7-3.5-1.2-5.3
			C112,174,111.6,173.4,111.2,172.5z"/>
		<path fill="#50BDD2" d="M544.4,243.6c-0.8-0.2-1.5-0.4-2.2-0.5c-3.2-0.5-6.5-0.9-9.7-1.3c-0.8-0.1-1.6-0.2-2.4-0.2
			c-1.3-0.1-2.6-0.3-3.7-1.1c-0.6-0.4-1.5-0.6-2.3-0.7c-3.3-0.3-6.7-0.7-10-0.4c-0.7,0.1-1.5-0.1-2.4-0.2c-0.2,0.4-0.5,0.9-0.7,1.4
			c-0.3,1.2-0.4,2.4-0.7,3.6c-0.5,2.2-1,4.3-1.4,6.5c-0.5,2.6-0.9,5.3-1.3,8c-0.2,1-0.3,2.1-0.6,3.1c-1.6,4.8-2.1,9.9-3.1,14.9
			c-1,4.9-1.9,9.8-3,14.7c-0.3,1.2-0.8,2.3-1.3,3.4c-0.4,1-1.3,1.4-2.3,1.7c-4.1,1-8.2,1.4-12.4,1.6c-1.6,0.1-3.3-0.1-4.8-0.9
			c-1.3-0.8-2.6-1.4-4.3-0.6c0-0.7-0.1-1-0.1-1.4c0.5-2.9,1.1-5.8,2-8.6c0.8-2.4,1.2-4.9,1.8-7.4c0.2-0.9,0.5-1.7,0.8-2.6
			c0.8-2.3,1.6-4.6,2.3-7c0.7-2.3,1.3-4.7,2-7.1c0.9-3.3,1.6-6.7,2.1-10.1c0.4-3.3,1.2-6.6,2.2-9.8c0.4-1.2,0.6-2.4,0.7-3.6
			c0.2-2.9,0.7-5.8,1.5-8.7c0.1-0.6,0.3-1.1,0.3-1.7c0.2-2.5,0.8-5,1.5-7.4c1.4-4.6,2.7-9.3,3.7-14c0.5-2.1,0.8-4.3,1.2-6.5
			c0.3-1.4,0.7-2.8,1.1-4.3c0.5-1.9,1-3.8,1.3-5.7c0.9-4.7,1.7-9.3,2-14.1c0.2-3.3,1-6.4,1.7-9.7c1.4-7.2,3.1-14.4,3.6-21.8
			c0.3-4,0.9-8,1.5-11.9c0.4-2.7,1.1-5.4,1.6-8.2c0.4-2,0.8-4,1-6c0.5-4.2,1.2-8.4,1.9-12.6c0.4-2.6,0.5-5.2,0.7-7.8
			c0.2-3,0.7-6,1-9c0.4-3.5,0.7-7,1.1-10.5c0.3-2.5,0.5-5,0.9-7.5c0.4-2.6,1.1-5.1,1.6-7.7c0.2-1.2,0.3-2.4,0.5-3.6
			c0.2-1.4,0.7-2.5,1.7-3.4c0.5-0.4,1-0.8,1.7-0.9c3.1-0.7,6.2-1.4,9.5-1c0.9,0.1,1.8,0.1,2.7-0.1c2.5-0.4,4.8,0.4,7.2,1
			c0.8,0.2,1.6,0.7,2.4,1.3c1.1,0.8,1.7,1.9,1.7,3.4c0,2.9,0,5.9-0.1,8.8c0,2,0.1,4.1,0.3,6.1c0.3,2.5,0.4,5,0.6,7.6
			c0.1,0.7,0.1,1.3,0.2,2c0.3,2.2,0.4,4.4,0.4,6.6c0,2.2,0.2,4.4,0.5,6.6c0.7,4.9,1.3,9.9,1.6,14.9c0.1,1.3,0.3,2.6,0.6,3.9
			c0.7,3.5,1.2,6.9,2.1,10.3c0.8,3.1,0.7,6.3,1.1,9.5c0.2,1.5,0.2,3.1,0.3,4.6c0.1,2.3,0.2,4.6,0.4,6.8c0.1,1.5,0.3,3.1,0.6,4.6
			c0.7,3.4,1.5,6.7,2.1,10.1c0.8,3.9,1.5,7.9,2.3,11.8c0.2,0.8,0.3,1.6,0.1,2.4c-0.2,0.8-0.2,1.6-0.2,2.4c0.1,2.9,0.2,5.9,0.2,8.8
			c0,2-0.2,4.1-0.1,6.1c0.1,2.8,0.4,5.7,0.6,8.5c0,0.5,0.2,1,0.2,1.5c0.1,3.5,0.8,6.8,1.4,10.2c0.5,3.1,0.9,6.1,1.5,9.2
			c0.5,2.9,1.1,5.8,1.7,8.7c0.3,1.4,0.7,2.7,0.9,4c0.1,0.8,0,1.6,0.2,2.4c0.8,3.9,1,7.9,2,11.8c0.7,2.7,1,5.5,1.5,8.2
			c0.5,2.6,1.2,5.1,1.7,7.6c0.6,3,1.4,5.9,1.6,8.9c0.3,3.3,1,6.4,1.1,9.7c0,0.5,0.2,1,0.2,1.4c0.1,0.6,0.2,1.3,0.1,1.9
			c-0.2,1-0.2,1.9,0.4,2.8c0.5,0.7,0.2,1.4-0.3,2c-0.8,1.1-1.9,1.6-3.1,1.7c-3.7,0.4-7.3,1.2-11,1.1c-1.3,0-2.6-0.3-3.9-0.5
			c-0.6-0.1-1.2-0.5-1.7-0.9c-0.9-0.9-1.8-1.9-2.6-2.9c-0.3-0.4-0.6-1-0.6-1.6c-0.4-4.4-1-8.8-1.9-13.1c-0.5-2.4-1-4.8-1.7-7.1
			c-1.4-4.6-2.2-9.2-2.4-14c-0.1-3.1-0.2-6.2-0.3-9.3C544.5,246,544.4,244.9,544.4,243.6z M538.4,224.7c1.4-1.3,1.4-3,1.4-4.6
			c0-1.7-0.3-3.4-0.5-5.1c-0.2-2-0.5-4-0.8-6.1c-0.2-1.9-0.3-3.9-0.5-5.8c0-0.4-0.2-0.8-0.2-1.2c0.1-5.5-0.8-10.9-1-16.4
			c-0.2-5.5-0.5-11.1-0.6-16.6c-0.1-5.2-0.1-10.5-0.5-15.7c-0.7-8.3-1.5-16.6-2.4-24.9c-0.3-3.3-0.7-6.7-1.2-10
			c-0.4-2.6-0.2-5.2-0.4-7.8c0-0.5,0.1-1.1-0.5-1.8c-0.4,1.3-0.7,2.3-0.9,3.3c-0.7,3.1-1.3,6.2-2,9.3c-0.1,0.5-0.2,1-0.3,1.4
			c-0.8,4.9-1.5,9.8-2.4,14.7c-1.2,6.8-2.5,13.5-3.7,20.2c-1,5.6-1.9,11.3-2.8,16.9c-0.4,2.5-0.7,5-1.2,7.5
			c-0.5,2.1-0.7,4.2-0.9,6.3c-0.4,4.3-1,8.6-1.8,12.8c-0.9,5-1.6,10-1.9,15c-0.1,1.1-0.2,2.1-0.3,3.2c0,0.4,0,0.8,0,1.1
			c1.5,0.3,2.9,0.4,4.2,0.8c3.1,0.9,6.2,1.5,9.4,1.6c0.9,0,1.8,0.1,2.5,0.7c0.7,0.6,1.4,0.7,2.3,0.7
			C533.6,224.6,535.9,224.6,538.4,224.7z"/>
		<path fill="#50BDD2" d="M626.2,133.8c0.5-1.6,1.1-2.9,1.3-4.5c0.5-3.7,1.7-7.2,3.1-10.6c1.6-3.8,2.5-7.8,3.2-11.8
			c0.8-4.3,1.5-8.5,2.3-12.8c0.4-2.4,0.8-4.8,1.2-7.3c0.5-2.8,1.5-5.3,2.5-7.9c0.8-2.2,1.6-4.5,2.1-6.8c1.2-4.8,3.2-9.4,4.6-14.2
			c0.4-1.3,1.2-2,2.4-2.5c1.3-0.5,2.6-0.9,4-0.8c1,0,2.1,0.1,3.1-0.5c0.3-0.2,0.8-0.2,1.2-0.1c1.5,0.6,3,0.6,4.6,0.4
			c1.6-0.1,3.1,0.2,4.6,0.5c0.8,0.2,1.3,0.6,1.6,1.4c0.4,1.2,0.6,2.3,0.3,3.6c-0.5,3-1.6,5.8-2.9,8.6c-2.1,4.8-4.1,9.6-5.8,14.6
			c-0.6,1.6-1,3.3-1.4,5c-0.9,3.7-2,7.2-3.3,10.8c-1.3,3.5-2.3,7.2-2.7,10.9c-0.2,2.1-0.7,4.2-1.4,6.2c-0.5,1.3-0.7,2.7-1,4
			c-0.5,2.4-1,4.8-1.4,7.2c-0.2,1-0.2,2.1-0.3,3.2c-0.5,2.7-1,5.5-1.5,8.2c0,0.2-0.2,0.5-0.2,0.7c-0.6,5.3-1.7,10.5-2.5,15.7
			c-0.4,2.3-0.7,4.5-1,6.8c-0.3,2-0.6,4-0.9,6.1c-0.2,1.3-0.4,2.6-0.6,3.8c-0.6,2.9,0.2,5.7,0.2,8.5c0,1.5,0.2,3.1,0.2,4.7
			c0,0.7,0,1.3-0.1,2c-0.3,3.1-0.3,6.2,0,9.3c0.1,1,0.3,1.9,0.3,2.9c0.3,5.4,1,10.7,0.9,16.2c0,1.2-0.1,2.4-0.3,3.7
			c-0.4,2.4-0.3,4.9-0.3,7.3c0,2.3-0.2,4.6-0.2,6.9c0,1.1-0.1,2.3,0,3.4c0.5,5,1,10.1,0.9,15.2c0,0.8,0.2,1.7,0.6,2.3
			c0.6,1,0.8,2.1,0.9,3.3c0.4,2.8,0.6,5.5,1,8.3c0.3,2.6,0.2,5.2,0.5,7.8c0.1,1.2,0.1,2.5-0.1,3.7c-0.5,3.5-0.1,7-1,10.5
			c-0.4,1.6-0.4,3.2-0.6,4.8c0,0.4-0.1,0.9-0.3,1.2c-1.4,1.7-2.9,3.3-5.4,3.3c-4.2,0-8.5,0-12.7,0c-0.4,0-0.8,0-1.2-0.1
			c-1.4-0.3-2.3-1.2-2.7-2.6c-0.1-0.5-0.2-1-0.1-1.5c0.6-3,0.2-6,0.1-9c-0.1-2.6,0.1-5.2,0.2-7.8c0.1-2.2,0.1-4.4,0.2-6.6
			c0.2-4.4,0.5-8.8,0.8-13.2c0-0.8,0.1-1.6,0-2.4c-0.3-3.9-0.3-7.8-0.3-11.8c0-6.5,0.6-12.9,0.6-19.4c0-2.1-0.2-4.2-0.4-6.3
			c-0.4-4.3-0.8-8.6-1.3-12.9c-0.2-1.6-0.7-3.2-1-4.8c-0.7-4-0.8-8-0.9-12c-0.1-2.8-0.2-5.5-0.3-8.3c0-0.4-0.1-0.8-0.1-1.2
			c0.3-2.2,0.2-4.4-0.2-6.6c-0.2-1-0.4-1.9-0.8-2.8c-2.7-5.8-5.5-11.5-8.1-17.3c-2.1-4.7-3.9-9.5-5.9-14.3
			c-1.4-3.4-2.6-6.9-3.8-10.3c-2-5.5-4.1-11-6.2-16.5c-0.8-2.1-1.7-4-2.3-6.2c-0.4-1.3-1.2-2.5-1.8-3.7c-1.2-2.8-2.4-5.5-3.6-8.3
			c-0.6-1.3-1.4-2.6-2.1-3.9c-0.5-0.9-0.9-1.7-1.4-2.6c-1.6-3.1-3.1-6.3-4.8-9.3c-1.5-2.7-2.4-5.5-3.2-8.4c-0.1-0.3-0.2-0.7-0.1-0.9
			c0.3-1,0.1-1.9-0.1-2.9c-0.2-1.1,0.2-1.7,1.2-2.1c0.3-0.1,0.6-0.2,0.9-0.3c3.8-0.6,7.6-1.3,11.4-1.9c1-0.1,2-0.2,2.9-0.2
			c1.2,0.1,2.3,0.5,3.3,1.4c1.5,1.2,2.7,2.6,3.7,4.2c1.1,1.8,2.3,3.6,3.3,5.5c0.9,1.6,1.8,3.3,2.5,5c2,5,4.1,10,6,15
			c1,2.8,1.8,5.6,2.6,8.4c1.8,6,4,11.9,6.2,17.8c1.1,3,1.9,6.1,3,9.1c1,2.8,2.3,5.6,3.5,8.4C625.6,133.5,625.9,133.6,626.2,133.8z"
			/>
		<path fill="#50BDD2" d="M216.3,152.6c1-0.1,1.8-0.2,2.6-0.3c2.9-0.4,5.8-0.7,8.8-0.5c2.4,0.1,4.7,0,7.1,0c0.8,0,1.6,0,2.4,0.1
			c2.7,0.4,4.5,1.9,5.3,4.5c0.9,2.8,1.1,5.8,1.3,8.7c0,0.6,0,1.1,0,1.7c0,0.9,0.3,1.8-0.5,2.6c-0.9,0.9-1.8,1.8-3.1,1.9
			c-3.8,0.3-7.5,1.4-11.4,1.5c-0.9,0-1.8,0.2-2.7,0.3c-1.9,0.4-3.9,0.6-5.8,0.6c-1.3,0-2.6,0.1-4,0.2c-0.1,0.6-0.3,1.2-0.3,1.7
			c0.1,2.9,0.4,5.9,0.4,8.8c0,4.7-0.1,9.3-0.2,14c0,0.8,0,1.6,0,2.4c0,1.9,0,3.8-0.1,5.6c0,2-0.1,4.1-0.2,6.1
			c-0.1,3.9-0.2,7.8-0.2,11.8c-0.1,7.4-0.3,14.9-0.4,22.3c-0.1,4.3-0.1,8.7,0,13c0.1,3.3,0.3,6.7,0.5,10c0.2,2.8,0.3,5.5,0.5,8.3
			c0,0.6,0.1,1.3,0.2,1.8c0.6,0.6,1.3,0.6,1.9,0.6c1.1,0,2.3,0,3.4-0.1c0.7,0,1.5,0,2.2-0.2c3.4-0.8,6.8-0.7,10.2-0.8
			c1.4-0.1,2.8-0.1,4.2,0c3.3,0.2,6.5,0.4,9.8,0.7c1.2,0.1,2.4,0.4,3.4,1.2c0.9,0.8,1.5,1.6,1.9,2.8c0.6,2.2,0.7,4.4,0.6,6.6
			c-0.1,2.2-0.4,4.4-0.6,6.6c-0.8,0.8-1.7,1.2-2.7,1.1c-2.2-0.2-4.4,0.5-6.6,0.6c-2.2,0.1-4.4,0.3-6.6,0.4c-1.6,0-3.2-0.2-4.9-0.2
			c-0.9,0-1.8,0-2.7,0.1c-3.3,0.4-6.7,0.6-10,0.6c-2.5,0-5,0.4-7.5,0.8c-2.9,0.4-5.7,0.6-8.5-0.2c-0.6-0.2-1.3-0.2-1.9-0.3
			c-1.9-0.3-3-1.3-3.1-3.2c-0.1-1.9-0.5-3.7-1.1-5.5c-0.1-0.2-0.1-0.5-0.1-0.7c0-3.1-0.7-6.1-1.4-9.2c0-0.2,0-0.3,0-0.5
			c-0.2-2.8-0.4-5.5-0.5-8.3c-0.1-4.7-0.3-9.3,0-14c0.2-3.4,0.3-6.8,0.3-10.3c0-0.6,0-1.1-0.1-1.7c-0.3-1.6-0.3-3.2,0.1-4.8
			c0.3-1.1,0.2-2.3,0.2-3.4c-0.1-3.2-0.2-6.4-0.3-9.6c0-0.5,0.1-1,0.1-1.5c0-1.1,0.1-2.1-0.1-3.2c-0.5-3.6-0.7-7.1-0.8-10.7
			c-0.1-2.7-0.4-5.4-0.6-8.1c-0.1-2.1-0.2-4.2-0.2-6.4c0-1.2,0.1-2.4,0.2-3.7c0-0.7,0.1-1.3,0.1-2c0-2.7,0-5.4,0-8.1
			c0-0.5,0-1,0.1-1.5c0.9-3.2,0.6-6.5,0.2-9.7c-0.7-6.2-1-12.4-0.9-18.6c0-2.5,0.1-5.1,0.2-7.6c0.3-3.4,0.7-6.8,1-10.2
			c0.1-0.6,0.2-1.3,0.2-1.9c-0.2-5.4-0.4-10.8-0.6-16.2c0-0.8,0-1.6,0.1-2.4c0.2-3.2,0.5-6.3,0.6-9.5c0.1-2.2,0-4.4,0-6.6
			c0-1.1,0-2.3,0.1-3.4c0.2-3.3-0.3-6.5-0.3-9.8c-0.1-5.4-0.4-10.8,0.2-16.2c0.3-2.6,1.5-4.4,3.6-5.8c1.2-0.7,2.2-1.6,3.3-2.5
			c1.5-1.1,3.2-1.6,5-1.8c2.2-0.2,4.4-0.4,6.6-0.6c2.5-0.2,4.9,0.4,7.3,0.5c1.7,0.1,3.4,0.3,5.1,0.4c2.5,0,5.1,0,7.6,0.4
			c1.6,0.3,3.2,0.3,4.9,0.1c2.7-0.3,5.4,0,8,0.6c2.5,0.6,4.4,2.2,4.9,4.9c0.4,2.2,0.9,4.5,1,6.7c0,1.6-0.5,2.9-1.4,4.3
			c-1.8,2.9-4.5,3.6-7.5,3.9c-3.5,0.3-7,0.2-10.5-0.3c-0.8-0.1-1.6-0.2-2.4-0.1c-4.1,0.5-8.1,1.1-12.2,1.6c-0.2,0-0.5,0.1-0.7,0.1
			c-2.7,0.7-3.5,0.8-3.6,4.2c-0.1,2.2-0.1,4.4,0,6.6c0.2,3.3,0.1,6.7,0,10c0,2-0.3,4.1-0.2,6.1c0.3,5.1,0.1,10.3,0.2,15.4
			c0.1,6.3,0.4,12.6,0.9,18.8c0.1,1.2,0.1,2.5,0,3.7C215.8,150.3,215.8,151.4,216.3,152.6z"/>
		<path fill="#50BDD2" d="M301.3,195.8c-0.2,0.5-0.3,0.6-0.3,0.7c-0.1,4.9-0.2,9.8-0.2,14.7c0,2,0.1,3.9,0.2,5.9
			c0.1,2.6,0.1,5.2-0.9,7.7c-0.3,0.8-0.3,1.8-0.2,2.7c0.1,4.2,0.4,8.5,0.5,12.7c0.1,1.7,0.1,3.4,0.2,5.1c0.2,3.8,0.3,7.7,0.6,11.5
			c0.3,4,0.3,8,0.2,12c0,2.1,0,4.3,0,6.4c0,0.4,0,0.8,0.1,1.2c0.2,1.2,0.7,1.8,2,1.8c4.4,0,8.8,0.5,13.2-0.2
			c2.7-0.4,5.5-0.2,8.3-0.2c2.8,0,5.5,0.3,8.3,0.6c1.6,0.2,3.2,0.7,4.6,1.5c1.7,1,2.5,2.3,2.6,4.3c0.2,3-0.2,6-0.3,9.1
			c-0.1,1.8-1.3,2.7-2.5,3.7c-0.3,0.2-0.8,0.2-1.2,0.1c-4.6-0.5-9.1-0.4-13.7,0.1c-3.7,0.4-7.3,0.5-11,0.2c-3.1-0.2-6.2,0-9.3,0.1
			c-2.2,0-4.4,0.1-6.6,0.1c-0.6,0-1.1,0-1.7,0c-2.4,0.3-4.7,0.2-7-0.8c-1.3-0.6-2.8-0.9-4.3-1.4c-0.2-1.7-0.5-3.4-0.4-5.2
			c0.2-2,0.3-3.9-0.5-5.8c-0.1-0.3-0.1-0.6-0.1-1c-0.1-4.1-0.6-8.1-0.2-12.2c0.1-1.4-0.2-2.9-0.2-4.4c0-2.5,0.2-5.1,0.2-7.6
			c0.1-4.1,0.1-8.2,0.1-12.3c0-1.5,0.1-2.9,0.2-4.4c0.2-2,0-4.1-0.1-6.1c-0.1-2-0.1-3.9-0.2-5.9c-0.1-3.8-0.3-7.7-0.5-11.5
			c-0.1-2-0.4-3.9-0.3-5.9c0.1-6.8-0.2-13.5,0-20.3c0.1-3.1-0.1-6.2-0.2-9.3c0-0.6,0-1.3,0.2-1.9c0.5-2.2,0.7-4.3,0.6-6.6
			c-0.2-2.8,0-5.7,0-8.6c0-1,0-2,0-2.9c0-1.2,0.1-2.4,0.1-3.6c0-2.4-0.1-4.7-0.2-7.1c-0.3-5.3-0.4-10.6-0.4-15.9c0-3-0.3-6-0.5-9.1
			c-0.1-2-0.1-3.9-0.1-5.9c0-7-0.4-14-0.1-21.1c0.2-5,0-10,0.1-15c0-1.5,0.3-3.1,0.4-4.6c0.1-1.7,0.5-3.4,0.4-5.1
			c-0.1-1.4,0.2-2.8,0.4-4.1c0.2-1.6,0.7-3.2,0.8-4.8c0.1-1.4,0.8-2.2,1.9-3c2.1-1.5,4.4-2.4,7-2.6c2-0.2,4-0.5,6.1-0.7
			c1.9-0.1,3.9-0.2,5.9-0.1c4.7,0.3,9.5,0.8,14.2,1.1c0.6,0,1.2,0.2,1.7,0.1c2.9-0.5,5.7-0.1,8.6,0c0.4,0,0.9,0.1,1.2,0
			c1.9-0.6,3.7,0.2,5.5,0.6c1,0.2,1.6,0.8,1.8,1.8c0.3,1.2,0.6,2.4,0.8,3.6c0.3,3.3,0.6,6.5,0.8,9.8c0.1,1.5-0.3,2.9-1.3,4.1
			c-0.7,0.8-1.5,1.3-2.5,1.3c-1.4,0-2.8-0.1-4.2-0.2c-2-0.1-3.9-0.3-5.9-0.5c-2-0.2-3.9-0.4-5.9-0.5c-1.1-0.1-2.3-0.1-3.4,0
			c-1.9,0.2-3.7,0.7-5.5,1c-1.4,0.2-2.8,0.3-4.1,0.4c-0.3,0-0.7,0-1,0c-3,0.1-3.2,0.3-3.7,3.3c-0.1,0.6-0.3,1.3-0.5,1.9
			c-0.3,1-0.3,2.1-0.2,3.2c0.3,2.5,0.3,5,0.1,7.6c-0.2,1.7-0.1,3.4-0.1,5.1c0.1,3.4,0.2,6.7,0.3,10c0.1,1.6,0.1,3.1,0.3,4.6
			c0.6,7.4,0.9,14.8,1,22.3c0,1.1,0,2.3-0.1,3.4c-0.4,5.2-0.3,10.5-0.1,15.7c0.1,2.3-0.1,4.6-0.1,6.9c0,1.1-0.1,2.3,0,3.4
			c0.1,1.5,0.7,2.1,2.2,2c3.3-0.1,6.7-0.1,10-0.7c2.5-0.4,5.2-0.1,7.8-0.2c1.7,0,2.7,1,3.5,2.3c0.6,0.9,0.9,1.9,0.9,3
			c0.2,4.1,0.2,8.2-0.2,12.3c-0.1,1.1-0.4,2.3-0.6,3.4c-0.1,0.8-0.7,1.3-1.5,1.4c-1.6,0.1-3.3,0.2-4.9,0.3c-3.3,0.2-6.7,0.3-10,0.2
			C305.9,195.3,303.6,195.6,301.3,195.8z"/>
	</g>
	<g>
		<path fill="#E2866A" d="M247.2,371.6c0.8-0.6,0.7-1.3,0.6-1.9c-0.1-2.1,0.3-4.2,0.3-6.3c0-4.3,0.8-8.6,0.8-12.9
			c0-2.3,0-4.6,0.1-6.9c0-0.5,0.1-1,0.1-1.5c0-1.2,0.1-2.4,0-3.7c-0.3-2.7-0.1-5.4,0.1-8.1c0.2-1.8,0.9-2.4,2.7-2.6
			c0.6-0.1,1.1-0.1,1.7,0c0.5,0,1,0.2,1.4,0.3c0.9,1.5,1.4,3,1.3,4.7c-0.1,2.3,0,4.6,0,6.9c0.1,4.5-0.5,9-1.1,13.4
			c-0.1,0.5-0.1,1,0,1.5c0.3,2.5,0.2,5-0.4,7.5c-0.6,2.3-0.8,4.6-0.7,7c0.1,2.5,0.1,5.1,0.1,7.6c0,2.2-0.3,4.4-0.8,6.5
			c-0.5,2.2-0.9,4.5-1.2,6.7c-0.2,1.1-0.8,1.7-1.9,1.9c-1.3,0.3-1.9,0.3-4.1-0.2c-1.9-2.5-3.3-5.2-3.8-8.3c-0.2-1-0.5-2.1-0.9-3.1
			c-0.9-2.5-1.3-5.1-2-7.6c-0.4-1.5-0.8-3-1.4-4.4c-2.1-5.5-3.8-11.1-5.5-16.8c-0.5-1.7-1.6-4-2.6-5.4c-0.6,0.1-0.5,0.5-0.5,0.9
			c-0.1,0.5,0,1,0,1.5c0.2,2.2,0.2,4.4-0.1,6.6c-0.5,3-0.3,6-0.3,9c0,2-0.1,3.9-0.2,5.9c0,1.4-0.1,2.8-0.1,4.2c0,0.6,0,1.1,0,1.7
			c-0.4,4-0.1,8,0.4,12c0.2,1.6,0,3.1-0.7,4.6c-1.5,0.4-3.1,0.3-4.6,0.2c-1.2-0.1-1.9-0.9-1.8-2c0.5-2.8-0.4-5.5-0.2-8.3
			c0.1-2.1,0-4.2,0.1-6.4c0.1-2.9,0.2-5.9,0.2-8.8c0.1-2.9,0.2-5.7,0.2-8.6c0-2.1-0.2-4.2-0.2-6.4c-0.1-3.2-0.2-6.3-0.2-9.5
			c0-2.4,0-4.7,0-7.1c0-0.7,0.1-1.5,0.1-2.2c-0.1-2,0.8-3.6,2-5.1c0.9-1.1,3-1.3,4.2-0.4c0.8,0.7,1.6,1.4,2.4,2
			c1.1,0.9,1.9,2,2.4,3.3c1,2.7,1.9,5.4,2.9,8c1.1,2.8,2.2,5.6,3.4,8.4c1.3,3.2,2.5,6.4,3.7,9.6c0.6,1.6,1.2,3.2,1.7,4.8
			c0.6,2,1.1,4.1,1.6,6.1C246.7,370.7,247,371.1,247.2,371.6z"/>
		<path fill="#E2866A" d="M639.2,340.7c-0.5,1.4-0.8,2.6-0.6,3.7c0.8,0.5,0.9-0.1,1.2-0.5c0.1,0.1,0.3,0.3,0.2,0.3
			c-0.3,0.8-0.5,1.7-0.8,2.5c-0.5,1.3-0.8,2.7-0.4,4.1c0.3,1,0.2,2.1,0.2,3.1c0.1,1.5,0.3,3.1,0.7,4.6c0.4,1.8,0.7,3.5,0,5.3
			c-0.5,1.2-0.1,2.6,0.1,3.9c0.2,1.1,0.3,2.3,0.1,3.4c0,0.2,0,0.3,0,0.5c0.2,4.3-0.4,8.6-0.3,12.9c0.1,1.9,0.1,3.7-1,5.4
			c-1.6,0.7-3-0.4-4.5-0.4c-0.4-1-0.7-1.7-0.3-2.7c0.3-0.7,0.3-1.6,0.3-2.4c-0.1-5.1-0.2-10.3-0.3-15.4c-0.1-3.1,0-6.2-0.3-9.3
			c-0.2-2.9-0.1-5.9-0.1-8.8c0-1.1-0.1-2.1-0.1-3.2c-0.1-3.9-0.1-7.8-0.1-11.8c0-1.1,0.3-2.3,0.5-3.4c0.5-2.5,0.7-5,1.6-7.4
			c0.1-0.3,0.2-0.7,0.4-0.9c0.3-0.3,0.6-0.6,1-0.6c0.9,0,1.8,0.1,2.7,0.1c1.2,0,2.2,0.5,2.8,1.7c0.7,1.5,1.4,3,1.9,4.5
			c1.6,5.4,3.4,10.7,5.7,15.9c1.4,3.2,2.3,6.6,3.3,10c0.6,2.1,1.4,4.2,2.1,6.3c0.6,1.9,1.3,3.9,1.9,5.8c0.2,0.5,0.6,0.9,1,1.6
			c0.2-0.4,0.4-0.6,0.3-0.8c-0.6-2.1,0.4-4.2-0.3-6.3c-0.1-0.2,0-0.5,0-0.7c0.3-5.5,0.7-11.1,0.9-16.6c0.2-4.2,0.3-8.5,0.4-12.7
			c0-1.5-0.2-2.9-0.4-4.4c-0.1-1.2,0.1-2.3,0.4-3.3c1.7-1.2,3.6-1.4,5.4-1.6c1-0.1,1.5,0.3,1.7,1.3c0,0.2,0.1,0.5,0.1,0.7
			c0,2.7,0.2,5.4,0,8.1c-0.2,2.4-0.3,4.7-0.3,7.1c0,1.6-0.1,3.3,0.2,4.9c0.2,0.9,0,1.8,0,2.7c-0.1,3.5-0.1,7-0.2,10.5
			c-0.1,2.7-0.4,5.4-0.6,8.1c-0.2,3.3-0.2,6.5-0.1,9.8c0,0.8,0.1,1.7-0.1,2.4c-0.6,2-0.7,4-0.7,6c0,0.3,0,0.7-0.1,1
			c-0.1,1-0.7,1.7-1.6,1.9c-0.9,0.2-1.8,0.4-2.6,0.5c-1.3,0.1-2.4-0.7-3.2-1.6c-1-1.1-1.9-2.3-2.1-3.8c-0.1-0.6-0.3-1.1-0.5-1.6
			c-1.3-3.3-2.3-6.6-2.9-10.1c-0.2-1.3-0.5-2.5-1.2-3.7c-0.4-0.7-0.6-1.5-0.9-2.3c-2.1-5.9-4.6-11.7-7-17.5c-0.8-2-1.6-3.9-2.5-5.9
			C639.7,341.4,639.4,341,639.2,340.7z"/>
		<path fill="#E2866A" d="M300.3,378.1c0.3-0.3,0.6-0.6,0.7-0.9c0.5-1.5,0.9-2.9,1.3-4.4c0.2-0.6,0.1-1.3,0.3-1.9
			c0.9-2.3,0.8-4.8,1-7.2c0.1-1.4-0.1-2.8-1.5-3.6c-0.7-0.4-0.9-1.1-0.7-1.9c0.1-0.6,0.4-1.1,1.1-1.2c0.6-0.1,1.3-0.2,1.9-0.2
			c2.3-0.1,4.6-0.1,6.9-0.1c1.2,0,2.4,0.1,3.7,0.3c0.8,0.1,1.3,1,0.9,1.6c-0.4,0.7-0.8,1.4-1.3,2.1c-0.6,0.7-1.3,1.2-2.3,1.2
			c-0.8,0-1.6,0.1-2.4,0.3c-1.6,0.4-2.2,1.1-2.1,2.8c0.1,1.6-0.1,3.2-0.6,4.8c-0.9,3.5-1.6,7-2.1,10.5c-0.1,0.9-0.3,1.8-0.5,2.6
			c0.9,1.2,2.2,1.5,3.4,1.9c1.9,0.7,3.8,1.5,5.8,1.8c0.9,0.1,1.7,0.6,2.4,1.1c0.6,0.4,0.6,1.2,0,1.7c-1.7,1.2-3.5,2-5.7,1.6
			c-1.6-0.3-3.2-0.7-4.6-1.6c-0.7-0.4-1.5-0.7-2.1-1.2c-1.3-0.9-2.7-0.9-4.2-0.5c-1.9,0.6-3.8,1-5.7,1.6c-0.9,0.3-1.7,0.3-2.7,0.2
			c-2.2-0.2-4.4-0.5-6.4-1.5c-1.3-0.7-2.3-1.5-3.2-2.6c-2-2.5-3.2-5.3-3.5-8.5c-0.3-2.8-0.6-5.7-0.8-8.5c-0.3-3.3,0.6-6.5,1.8-9.5
			c0.8-2,1.6-3.9,2.5-5.9c0.8-1.6,1.6-3.2,2.6-4.7c0.7-1.1,0.8-2,0.5-3.2c-0.5-2.1-0.8-4.3-1.2-6.5c-0.2-1.5-0.3-3.1-0.6-4.6
			c-0.7-3.7-0.6-7.5-0.1-11.2c0.3-1.9,1.3-3.3,2.4-4.8c0.3-0.4,0.8-0.6,1.2-0.8c2.6-1,5.3-1,8-0.5c2.3,0.5,3.9,2.2,4.9,4.1
			c1.3,2.5,2,5.1,1.7,8c-0.3,2.9-1,5.6-2.2,8.2c-0.4,1-0.7,2-1.1,3c-1.3,3.6-3.1,7-5.3,10.2c-0.5,0.7-0.9,1.3-1.3,2
			c-0.5,0.8-0.7,1.6-0.6,2.6c0.3,3.7,1.2,7.2,2.6,10.6c0.9,2.1,1.9,4.1,2.4,6.4c0.2,0.9,0.8,1.8,1.3,2.6c0.8,1.1,1.8,2.1,2.7,3.2
			C299.7,377.9,300,377.9,300.3,378.1z M296.5,382.2c-0.3-0.5-0.4-1-0.7-1.4c-0.7-1-1.5-1.9-2.2-2.9c-0.8-1.2-1.8-2.4-2.4-3.7
			c-2.3-4.8-4.8-9.5-5.8-14.8c-0.1-0.4-0.1-1-0.9-1.1c-0.3,0.5-0.7,1-0.8,1.6c-1,3.5-1.6,7-1.5,10.6c0.1,3.7,1.3,7,3.2,10.2
			c0.5,0.8,1,1.5,1.6,2.1c0.9,1,2.1,1.6,3.5,1.3c1.5-0.3,3-0.6,4.5-1C295.5,383,296,382.6,296.5,382.2z M290.7,338.4
			c1.1-0.3,1.3-0.9,1.6-1.5c1.3-2.3,1.8-4.9,2.2-7.4c0.3-1.7-0.4-3.2-1-4.7c-0.1-0.2-0.3-0.4-0.5-0.5c-0.5-0.4-1.1-0.8-1.8-0.5
			c-0.6,0.3-0.9,0.7-0.9,1.3c-0.1,0.8-0.2,1.6-0.1,2.4c0.1,2.8,0.2,5.7,0.3,8.5C290.5,336.8,290.6,337.5,290.7,338.4z"/>
		<path fill="#E2866A" d="M87.3,396c-0.4-0.4-0.7-0.8-1.1-1.1c-0.6-0.5-0.7-1-0.6-1.7c0.2-3.3,0.3-6.7,0.3-10c0-1.7-0.3-3.4-0.5-5.1
			c-0.1-1.3-0.4-2.6-0.4-3.9c0.2-3.3-0.3-6.5-0.3-9.8c0-2.9,0.1-5.9,0-8.8c-0.2-6-0.4-12.1-1.1-18.1c-0.2-1.6-0.1-3.3-0.1-4.9
			c-0.1-2.2,1.4-3.2,3-3.6c0.9-0.2,1.8-0.4,2.6-0.5c3.5-0.4,6.8,0.3,9.7,2.4c1.5,1.1,2.5,2.5,3.3,4.1c1.7,3.5,3.5,6.8,4.9,10.4
			c0.4,1,0.7,2,0.9,3c1.3,5.6,1.5,11.3,1.3,17c0,1.2-0.3,2.4-0.4,3.6c-0.3,2.8-0.6,5.7-0.9,8.5c-0.1,1.1-0.4,2.2-0.8,3.3
			c-0.4,1.5-1,2.9-1.5,4.4c-0.2,0.6-0.5,1.2-0.8,1.8c-0.9,1.3-1.8,2.5-2.8,3.7c-0.3,0.4-0.7,0.7-1.1,0.9c-2.3,1.3-4.5,2.5-7,3.4
			C91.8,396.1,89.6,396.1,87.3,396z M92.7,336.5c-0.4,0.8-0.3,1.6-0.3,2.4c0.1,2.4,0.2,4.7,0.2,7.1c0.1,2.9,0.1,5.7,0.1,8.6
			c0,4,0,8,0.1,12c0,1.2,0.1,2.4,0.3,3.7c0.5,4.1,0.7,8.1,0.6,12.2c0,1.6-0.1,3.2-0.2,5c1.4-0.3,2.4-0.9,3.1-1.9
			c1.6-2.5,3.1-5,3.5-8c0.2-1.8,0.7-3.5,0.9-5.3c0.4-2.7,0.9-5.4,0.8-8c-0.1-4.6-0.4-9.1-1.3-13.6c-0.7-3.3-1.5-6.5-3.1-9.5
			c-0.6-1.2-1.4-2.4-2.4-3.4C94.5,337,93.8,336.4,92.7,336.5z"/>
		<path fill="#E2866A" d="M626.4,358.4c0,1.3-0.1,2.6,0,3.9c0.2,2.2,0.2,4.4-0.1,6.6c-0.1,0.9-0.2,1.8-0.4,2.7
			c-0.6,3.1-1.3,6.2-1.9,9.3c-0.2,0.8-0.2,1.6-1.1,2.1c-0.2,0.1-0.4,0.5-0.5,0.8c-2,4-5.5,5.9-9.7,6.6c-1.2,0.2-2.6,0.1-3.8-0.4
			c-1.1-0.4-2.4-0.7-3-1.9c-0.2-0.4-0.7-0.7-1.1-1c-1.1-0.9-1.8-2-2.3-3.4c-1.5-3.6-2.4-7.3-2.7-11.1c-0.3-2.9-0.6-5.8-0.8-8.8
			c-0.1-1.1,0-2.3-0.1-3.4c-0.3-5.4-0.2-10.8,0-16.2c0.1-1.1,0.3-2.3,0.5-3.4c0.3-2.1,0.5-4.2,0.8-6.3c0.5-2.6,1.1-5.3,1.8-7.9
			c0.9-3,3.1-4.7,6.1-5.2c0.6-0.1,1.1-0.2,1.7-0.3c1.2-0.2,2.3-0.2,3.4,0.3c0.8,0.3,1.5,0.7,2.3,0.8c1.3,0.2,2.3,0.9,3.1,1.8
			c1.5,1.5,2.8,3.2,3.5,5.3c0.3,0.9,0.7,1.8,1.1,2.7c0.7,1.7,1.2,3.6,1.5,5.4c0.5,3.7,1.1,7.4,1.1,11.2c0,0.2,0,0.5,0.1,0.7
			C626.4,352.4,626.7,355.4,626.4,358.4z M610.7,384c0.6-0.3,1.1-0.6,1.6-0.8c1.2-0.4,2-1.2,2.5-2.5c0.8-2,1.5-4,1.8-6.1
			c0.2-1.6,0.4-3.2,1.1-4.8c0.2-0.4,0.3-1,0.3-1.4c0.2-2.1,0.4-4.2,0.4-6.3c0-3-0.2-6-0.3-9.1c-0.2-3.3-0.4-6.7-0.6-10
			c0-0.3-0.1-0.7-0.1-1c-0.6-2-0.6-4-1.2-6c-0.5-1.6-1.1-3.1-1.8-4.5c-0.3-0.8-1.1-1.4-1.8-1.9c-1.8-1.3-3.9-0.8-4.9,1.2
			c-0.8,1.8-1.6,3.6-1.7,5.6c-0.1,2.1-0.3,4.2-0.4,6.4c0,0.7-0.1,1.3-0.2,1.9c-0.3,1-0.3,2.1-0.4,3.1c-0.2,2.9,0.2,5.7,0.2,8.6
			c0,2.5,0.3,5.1,0.4,7.6c0.1,2.4,0,4.7,0.2,7.1C606.2,375.8,607.4,380.2,610.7,384z"/>
		<path fill="#E2866A" d="M435.8,323.6c0.2,0.9,0.4,1.6,0.4,2.4c-0.1,6.1-0.2,12.2-0.2,18.4c0,2.4-0.1,4.9-0.1,7.3
			c0.1,3.4-0.4,6.7-0.7,10c-0.2,1.8-0.3,3.6-0.3,5.4c-0.1,3-0.7,5.8-1.3,8.7c-0.4,1.8-1,3.6-1.5,5.4c-0.7,2.3-1.9,4.3-3.6,6
			c-1.8,1.8-4.2,2.4-6.5,3.3c-2,0-3.9-0.2-5.7-1.5c-2.3-1.7-3.4-3.9-4.1-6.5c-1.1-4.3-1.7-8.6-1.7-13.1c0-2.1-0.3-4.2-0.5-6.4
			c-0.3-2.9-0.5-5.7-0.2-8.6c0.4-4.1,0.1-8.2-0.2-12.2c-0.2-2.8-0.6-5.5-0.5-8.3c0-1-0.2-2.1-0.3-3.2c-0.1-1.3-0.2-2.6-0.2-3.9
			c0.1-2,1.5-3.1,3.5-2.8c0.6,0.1,1.3,0.2,1.9,0.4c1.1,0.3,1.9,1,2.1,2.1c0.2,0.7,0.2,1.5,0.2,2.2c0.1,2.4,0.3,4.7,0.3,7.1
			c0,2.2-0.1,4.4-0.1,6.6c0.1,4.1,0.2,8.2,0.3,12.3c0,0.6,0.1,1.2,0,1.7c-0.4,1.6-0.2,3.1,0,4.6c0.5,3.6,0.7,7.3,0.7,11
			c0,3,0.7,5.8,1.4,8.7c0.1,0.5,0.4,1,0.7,1.3c1.1,1,2.5,1.6,4,1.8c1.4,0.2,2.5-0.8,3-2.4c0.8-2.4,1.5-4.8,2-7.3
			c1-5.2,1.3-10.5,1-15.9c-0.1-2.1,0-4.2,0.1-6.4c0.2-3.9,0.4-7.8,1.2-11.7c0.6-3.2,0.6-6.4,0-9.7c-0.3-1.7-0.2-3.4-0.1-5.1
			c0-1.2,0.6-1.8,1.8-2c0.6-0.1,1.1-0.1,1.7-0.1C434.6,323.5,435.1,323.6,435.8,323.6z"/>
		<path fill="#E2866A" d="M498.9,388.9c-1.8,0.3-3.3,1-4.8,0.4c-0.1-0.3-0.3-0.4-0.3-0.6c0-1.8,0-3.5-0.4-5.3
			c-0.5-2.1-0.5-4.3-0.4-6.6c0.1-1.4-0.3-2.9-0.3-4.4c-0.1-3.6-0.4-7.1-0.3-10.8c0.2-4.3,0.1-8.6,0-13c-0.1-4.8-0.3-9.6-0.4-14.4
			c0-2.4,0-4.7,0.2-7.1c0.1-1.2,0.6-2.4,0.9-3.5c1.5-1.4,3-2.6,5.2-2.2c1.1,0.2,2.3,0.2,3.4,0.4c0.7,0.1,1.5,0.3,2.1,0.6
			c2.2,1.1,4.2,2.5,5.5,4.7c0.8,1.4,1.3,3,1.3,4.7c-0.1,2.9-0.2,5.9-1,8.7c-0.5,1.7-0.7,3.5-1.1,5.3c-0.4,1.7-1,3.3-2.1,4.7
			c-0.9,1.1-1.2,2.4-1,3.9c0.5,5.5,1.4,10.9,2.8,16.2c1.3,4.9,2.7,9.7,4.1,14.6c0.3,0.9,0.5,1.9,0.6,2.9c0.1,0.7-0.3,1.2-1.1,1.4
			c-1.9,0.3-3.5-0.2-4.6-2c-1.3-2.2-2.4-4.5-2.9-7c-0.7-3.5-1.4-7.1-2.1-10.6c-0.4-1.8-0.9-3.7-1.3-5.5c-0.2-0.6-0.3-1.3-1.2-1.5
			c-0.1,0.2-0.3,0.5-0.4,0.7c-0.2,0.7-0.4,1.4-0.4,2.2c0.2,4.5,0.5,9,0.7,13.5c0.1,2.4,0.1,4.9,0,7.4
			C499.4,387.4,499.1,388.1,498.9,388.9z M497.9,350c1.3-0.5,2.3-1.1,2.8-1.9c1.1-1.7,2.2-3.4,2.6-5.5c0.5-2.8,0.7-5.6,0.5-8.5
			c-0.3-3.2-1.7-5.7-4.6-7.3c-0.1,0-0.1-0.1-0.2-0.1c-0.4-0.1-0.9-0.2-1.3-0.3c-0.6,0.9-0.9,1.7-0.9,2.6c0,1.8,0,3.6,0.1,5.4
			c0.1,2.8,0.3,5.5,0.5,8.3C497.5,345,497.5,347.4,497.9,350z"/>
		<path fill="#E2866A" d="M187.8,363.9c-0.1-2.9-0.3-5.7-0.2-8.6c0.2-5.2,0.8-10.4,2.5-15.4c0.7-2.2,1.6-4.3,2.5-6.4
			c1.6-3.6,4.3-5.7,7.9-6.8c2.4-0.7,4.5-0.2,6.4,1.3c1.6,1.3,1.5,3.6-0.4,4.7c-0.7,0.4-1.5,0.6-2.3,0.8c-0.5,0.1-1,0-1.5,0.1
			c-1.6,0.2-2.9,0.9-3.9,2.3c-1.1,1.6-1.8,3.3-2.1,5.2c-0.7,3.6-0.9,7.1-0.8,10.7c0,2.2-0.2,4.4-0.5,6.6c-0.4,3.5-0.2,7-0.2,10.5
			c0,1,0.3,1.9,0.5,2.9c0.7,2.4,1.4,4.9,2.1,7.3c0.4,1.2,0.9,2.4,1.5,3.6c0.5,1,1.3,1.7,2.3,2.1c2.1,0.9,4.4,0.3,5.6-1.7
			c0.5-0.8,0.9-1.8,1-2.7c0.5-3.7,0.6-7.3,0-11c-0.2-1.3-0.5-1.5-1.8-1.4c-1,0.1-2,0.3-2.9,0.2c-1.8-0.1-3-2.2-2.3-3.8
			c0.5-1.2,1.4-2,2.7-2.1c3.1-0.4,6.2-0.1,9.3,0.3c1,0.1,1.4,0.6,1.6,1.6c0.1,0.6,0.1,1.3,0,2c-0.2,2.4-0.1,4.7-0.1,7.1
			c0,1.6,0.1,3.2-0.2,4.9c-0.2,1.2-0.1,2.4-0.1,3.7c0,1.7-0.1,3.5-1,5c-1.8,3.2-4.5,5.3-8.4,5.5c-1.1,0.1-2.3,0.2-3.4,0.1
			c-5.7-0.4-9.9-2.9-11.6-8.5c-1.5-4.9-2.4-10-2.2-15.2C188,367.2,187.8,365.6,187.8,363.9C187.8,363.9,187.8,363.9,187.8,363.9z"/>
		<path fill="#E2866A" d="M516.6,388.7c1.5-3.4,1.9-6.8,3.1-10c0.9-2.3,1.2-4.7,1.7-7.1c0.7-3.6,1.1-7.3,2.1-10.8
			c0.5-1.8,0.6-3.7,0.9-5.6c0.6-4.4,1.3-8.9,1.9-13.3c0.3-2.5,0.5-5,0.8-7.5c0.2-1.5,0.6-3,0.8-4.6c0.2-1.2,0.8-2.3,0.6-3.6
			c0.8-3.3,1.6-4.3,5.1-3.5c1.9,0.5,3,1.6,3.3,3.5c0.3,2.3,0.5,4.5,0.7,6.8c0.3,3.4,0.6,6.8,1,10.2c0.1,1.4,0.3,2.8,0.4,4.1
			c0.3,6.6,0.8,13.2,1.5,19.8c0.3,2.6,0.6,5.2,0.8,7.8c0.2,2.3,0.3,4.6,0.5,6.8c0.1,1.4,0.4,2.8,0.6,4.1c0.3,1.7-0.5,3.3-1.9,4.1
			c-0.9,0.5-3-0.2-3.4-1.2c-0.2-0.5-0.3-0.9-0.4-1.4c-0.6-2.4-1.1-4.8-1.7-7.2c-0.8-3.3-0.9-3.7-4.3-4c-0.2,0-0.5-0.1-0.7-0.1
			c-1.4-0.2-1.9,0-2.4,1.4c-0.5,1.5-1,2.9-1.3,4.5c-0.4,1.9-0.7,3.9-1.1,5.8c-0.1,0.6-0.4,1.3-0.7,1.8c-0.7,1.1-1.7,1.5-2.9,1.1
			c-1.2-0.4-2.3-0.7-3.5-1.1C517.6,389.4,517.2,389.1,516.6,388.7z M535.4,370.1c0.4-1.6,0.3-2.9,0.2-4.2c-0.5-4.5-1-9.1-1.6-13.6
			c-0.4-3.4-0.9-6.8-1.4-10.2c-0.1-0.5,0-1.2-0.8-1.4c-0.1,0.1-0.3,0.2-0.3,0.4c-1.7,4.1-3.1,8.2-3.5,12.7c-0.1,1.3-0.4,2.6-0.3,3.9
			c0.1,2.4-0.1,4.7-0.5,7.1c-0.3,1.4-0.4,2.9-0.3,4.5C529.8,369.5,532.5,369.8,535.4,370.1z"/>
		<path fill="#E2866A" d="M586.1,381.4c1.2,0,2.3,0,3.4,0c1.6,0,2.4,0.8,2.5,2.4c0,1.6-0.1,3.3-0.1,4.9c0,0.9-0.6,1.3-1.4,1.5
			c-0.2,0.1-0.5,0.1-0.7,0.1c-4,0-8,0.1-12,0.1c-0.5,0-1,0.1-1.4,0.1c-1.2,0.1-2.2-0.5-2.3-1.6c-0.2-1.3-0.3-2.6-0.3-3.9
			c0-1.3,0.5-1.9,1.9-2.2c1.1-0.3,2.2-0.4,3.4-0.6c0.8-1.9,0.6-3.9,0.4-5.8c-0.2-2.7-0.6-5.4-0.7-8c-0.2-4.7-0.5-9.5-0.4-14.2
			c0.1-5.1,0-10.3-0.2-15.4c-0.1-1.9,0.1-3.7,0.2-5.6c0.1-1,0.1-2.1,0.2-3c-0.5-0.9-1.2-0.9-1.8-1c-0.9-0.2-1.8-0.3-2.6-0.5
			c-1.8-0.6-2.8-2.2-2.6-3.9c0.1-0.8,0.5-1.4,1.3-1.6c0.6-0.2,1.3-0.3,1.9-0.3c2.5,0,5.1,0,7.6-0.1c1.8,0,3.6-0.1,5.4-0.2
			c0.3,0,0.7-0.1,1-0.1c2.7-0.2,3.6,0.6,3.7,3.3c0,0.8-0.3,1.5-1.1,1.7c-1,0.4-2,0.7-3,0.9c-0.8,0.2-1.6,0.3-2.4,0.5
			c-0.6,1.8-0.7,3.6-0.6,5.4c0.3,5.4,0,10.8-0.3,16.2c-0.1,2.4-0.2,4.7-0.3,7.1c0,1.4,0.1,2.8,0.1,4.2c0,0.6,0,1.1,0,1.7
			c0,2.5,0,5.1,0.1,7.6c0,0.7,0.2,1.5,0.1,2.2c-0.3,2.4,0.4,4.7,0.7,7.1C585.6,380.6,585.9,380.9,586.1,381.4z"/>
		<path fill="#E2866A" d="M129,353.6c1.4,1.7,0.8,3.2,0.4,4.7c-0.1,0.4-0.8,0.8-1.2,1.1c-1.3,0.6-2.7,0.6-4.2,0.5
			c-0.6,2.5-0.8,4.9-0.7,7.3c0.1,2.8-0.2,5.5-0.1,8.3c0.1,3.8,0.1,7.5,0.1,11.3c0,0.3,0.1,0.6,0.1,0.8c0.6,0.7,1.3,0.4,2,0.4
			c1.5,0,3.1-0.1,4.6-0.1c0.6,0,1.1,0.1,1.7,0.3c1,0.4,1.6,1.1,1.6,2.2c0,0.8-0.2,1.6-0.4,2.4c-0.2,0.7-0.7,1.1-1.4,1.2
			c-1.1,0.1-2.3,0.3-3.4,0.2c-1.7-0.1-3.4-0.1-5.1-0.6c-0.4-0.1-1,0-1.4,0c-0.8,0-1.6,0-2.4,0c-1.2-1.1-1.4-2.5-1.5-3.8
			c-0.3-4.5-0.5-9-0.7-13.4c0-0.8,0.1-1.6,0.1-2.4c0-1.6,0.2-3.3,0-4.9c-0.4-5.5-1-10.9-0.9-16.4c0-5.3,0.2-10.6-0.2-15.9
			c-0.1-1.2,0-2.4,0-3.7c-0.1-1.4,0.6-2.3,1.7-3c1.6-1.1,3.4-1.7,5.3-1.9c1.3-0.1,2.6-0.1,3.9-0.1c0.8,0,1.5,0.2,2.2,0.8
			c0.5,0.4,1.3,0.6,2,0.7c0.9,0.2,1.5,0.8,1.7,1.6c0.2,1.1,0.3,2.3,0.1,3.4c-0.3,1.6-1.4,2.2-3.1,2c-1.2-0.1-2.4-0.4-3.6-0.4
			c-1.5,0-2.1,0.5-2.4,1.9c-0.5,1.9-0.8,3.8-0.7,5.8c0.1,2,0.1,4.1,0.2,6.1c0,0.6,0.2,1.1,0.3,1.7c0.1,0.8,0.6,1.3,1.5,1.4
			C126.4,353.2,127.7,353.4,129,353.6z"/>
		<path fill="#E2866A" d="M459.2,323.4c0.2,0.7,0.4,1.4,0.5,2.2c0.3,1.5,0,2.8-1.6,3.6c-1.3,0-2.8,0-4.3,0c-1,0-1.8,0.4-2.5,1.2
			c-1.7,1.9-2.7,4.1-2.8,6.6c0,1.1-0.1,2.3-0.2,3.4c-0.1,1.5,0.4,2.7,1.3,3.9c1.7,2.3,3.4,4.6,5.2,6.8c1.5,1.8,2.7,3.9,4,5.8
			c1.1,1.8,1.8,3.8,2.3,5.9c1,4.6,1.1,9.2,0.7,13.9c-0.2,2.6-1.2,4.9-2.8,6.9c-0.9,1.1-1.8,2.1-2.6,3.2c-1.8,2.3-4.2,3.3-6.9,3.7
			c-0.7,0.1-1.4,0.2-2.2,0.3c-1.7,0.3-3.1-0.6-3.6-2.2c-0.3-0.9-0.4-1.9-0.1-2.9c0.7-0.7,1.4-1.1,2.3-1.3c0.5-0.1,0.9-0.3,1.4-0.3
			c3.8-0.6,5.9-3.2,7.1-6.6c0.8-2.3,1.1-4.7,0.9-7c-0.1-2.1-0.8-4.1-1.8-6.1c-1.4-2.8-2.8-5.5-4-8.4c-1-2.3-2.4-4.5-3.7-6.6
			c-0.9-1.5-1.7-3-2.2-4.6c-0.1-0.5-0.2-1-0.4-1.4c-1.2-2.7-1.2-5.6-0.4-8.4c0.6-2.1,1-4.3,1.8-6.3c0.5-1.3,1.3-2.4,2.1-3.6
			c1.1-1.6,2.7-2.3,4.5-2.9c0.8-0.3,1.6-0.4,2.4-0.5C455.5,321.8,457.4,321.9,459.2,323.4z"/>
		<path fill="#E2866A" d="M557.1,390.1c-0.3-0.8-0.6-1.3-0.6-1.8c-0.1-1.8-0.1-3.6-0.1-5.4c0-0.5,0-1,0-1.5
			c-0.2-2.9-0.3-5.9-0.6-8.8c-0.4-3.6-0.4-7.3-0.5-11c-0.1-4.2-0.2-8.3-0.4-12.5c-0.1-3.8-0.3-7.7-0.5-11.5c0-0.6-0.1-1.2-0.2-1.7
			c-0.5-1.8-1-3.6-1.5-5.5c-0.6-0.1-1.2-0.3-1.7-0.3c-1,0-2,0-2.9,0c-1.7,0-2.5-0.5-2.9-2c-0.3-1.2-0.3-2.4-0.3-3.6
			c0-0.5,0.4-0.9,0.9-1c1.7-0.4,3.4-0.9,5.3-1c4.7-0.3,9.3-0.3,13.9,0.4c1.9,0.3,3.1,1.7,2.8,3.5c-0.1,0.9-0.5,1.5-1.2,2
			c-1.2,0.8-2.6,1.1-3.9,1.3c-1.1,0.2-1.6,0.7-1.7,1.7c-0.2,1.5-0.4,3.1-0.4,4.6c-0.2,4.7,0.3,9.5,0.8,14.2
			c0.4,3.8,0.5,7.7,0.7,11.5c0.2,3.8,0.5,7.7,0.5,11.5c-0.1,2.9,1.1,5.6,1.3,8.4c0.1,1.4,0.5,2.9,0.7,4.3c0.1,0.4,0,0.9-0.2,1.2
			c-0.9,1.5-1.9,2.9-3.9,3C559.3,390.2,558.3,390.1,557.1,390.1z"/>
		<path fill="#E2866A" d="M141.9,394.3c-0.7-0.5-1.5-0.9-1.9-1.5c-0.6-0.7-0.6-1.7-0.5-2.6c0.1-0.8,0.9-1.1,1.5-1.5
			c0.8-0.6,1.7-0.9,2.7-1c1.3-0.1,2.6-0.3,3.8-1c0.7-0.4,1.1-0.9,1.3-1.7c0.6-2.1,1.2-4.3,1-6.5c-0.1-0.7,0.1-1.2,0.6-1.8
			c0.3-0.4,0.5-1.1,0.4-1.6c-0.1-1.3-0.2-2.6-0.6-3.9c-0.7-2.2-1.7-4.4-2.5-6.6c-0.3-0.8-0.7-1.7-1.1-2.5c-0.6-1.3-1.3-2.6-2-3.9
			c-1.1-2-2.2-4-3-6.1c-0.3-0.8-0.7-1.7-1.1-2.4c-1.9-3.3-2.7-6.8-2-10.6c0.3-1.7,0.5-3.4,1.1-5c1.6-4.4,6.1-7.7,11.5-7.5
			c2.3,0.1,3.4,1.3,3.2,3.6c-0.1,1.9-0.7,2.7-2.7,2.8c-1.4,0.1-2.3,0.7-3.1,1.7c-0.4,0.4-0.7,0.9-1.1,1.3c-1.5,1.9-1.9,4-1.3,6.2
			c0.5,1.9,1.3,3.7,2.1,5.5c1.6,3.8,3.7,7.5,4.8,11.5c0.2,0.8,0.4,1.6,0.6,2.4c0.3,1.3,0.6,2.7,1,4c1.4,4.1,1.9,8.3,2.6,12.5
			c0.1,0.9,0.1,2-0.2,2.9c-0.9,3.1-1.9,6.3-3.7,9c-1,1.4-2.2,2.4-3.7,3.2c-0.7,0.4-1.6,0.5-2.3,0.5c-1.1,0-2.3-0.1-3.4-0.2
			C143.2,393.5,143.2,393.5,141.9,394.3z"/>
		<path fill="#E2866A" d="M168.1,386.2c0.2-0.4,0.3-0.5,0.3-0.7c0.3-1.7,0.4-3.4,0.7-5c0.3-1.7,0.3-3.4,0.3-5.1c0-1-0.1-2-0.2-2.9
			c-0.5-3.7,0-7.3,0.1-11c0.1-1.5,0.1-3-0.1-4.4c-0.2-1.6-0.2-3.3-0.1-4.9c0.1-1.5,0.1-2.9,0-4.4c-0.2-2.1-0.2-4.2-0.1-6.4
			c0-2.1-0.2-4.1-0.7-6.1c-0.3-1.1-0.8-1.8-2-1.8c-1.3,0-2.3-0.7-3.4-1.3c-0.8-0.5-1.5-1.3-1.5-2.4c0-1.3,0.9-2.4,2.3-2.5
			c2.5-0.2,5-0.9,7.6-0.4c0.8,0.1,1.6,0,2.4,0c0.4,0,0.8,0,1.2,0.1c1.4,0.4,2.7,0.5,4.1,0.2c0.3-0.1,0.6-0.1,1-0.2
			c1.4,0,2.3,1,2,2.4c-0.1,0.5-0.3,0.9-0.5,1.4c-0.4,0.8-1,1.2-1.9,1.2c-1.1,0-2.1,0-3.2,0c-0.5,0-0.9,0.2-1.4,0.2
			c-0.5,0.8-0.3,1.7-0.3,2.5c0,1.9,0.2,3.8,0,5.6c-0.3,1.9-0.3,3.7-0.4,5.6c-0.1,2.7-0.1,5.4,0.1,8.1c0.1,2.1-0.2,4.2-0.3,6.3
			c-0.1,1.6-0.1,3.1,0.2,4.6c0.4,1.6,0.6,3.2,0.1,4.8c-0.1,0.2,0,0.5,0,0.7c-0.1,3.9-0.1,7.8-0.2,11.7c0,0.7,0,1.3,0,2
			c0.1,0.8,0.4,1.2,1.2,1.3c1.4,0.2,2.7,0.6,4.1,0.6c2.4,0,3.1,1.3,3.1,3.4c0,2.3-1,3.3-3.3,3.3c-2.6,0-5.2,0.1-7.8,0.9
			c-0.5,0.1-1,0.2-1.4,0c-1.4-0.5-2.9-0.4-4.4-0.1c-1.2-1.8-1.4-3.7-1.1-5.7c0.1-0.8,0.8-1.2,1.5-1.5
			C166.8,386.5,167.4,386.4,168.1,386.2z"/>
		<path fill="#E2866A" d="M473.7,330.4c-1.9-0.2-3.6-0.4-5.2-0.6c-0.4,0-0.8,0-1.2-0.1c-1-0.2-2-0.4-2.3-1.5
			c-0.4-1.7,0.1-2.9,1.5-3.5c2.3-1,4.7-1.4,7.1-1.5c1.5-0.1,2.9,0.2,4.4,0.3c2.4,0.2,4.9,0.3,7.3,0.5c0.2,0,0.3,0.1,0.6,0.2
			c0.8,1.1,0.7,2.3,0.1,3.6c-0.6,1.2-1.4,2-2.7,2.2c-0.8,0.1-1.6,0.2-2.4,0.4c-1.2,0.3-1.5,0.8-1.3,1.9c0.8,3.8,1.1,7.6,0.8,11.4
			c-0.1,2.3,0.2,4.7,0.3,7.1c0,1.1,0.2,2.1,0,3.2c-0.3,1.9-0.1,3.7,0.1,5.6c0.4,4,0.6,8,1.4,11.9c0.5,2.3,0.8,4.7,0.8,7
			c0,3.1,0.3,6.2,0.7,9.3c0,0.4,0.1,0.8,0.1,1.2c-0.1,0.8-0.9,1.7-1.8,1.7c-1.1-0.1-2.1,0-3.2,0c-0.6-0.1-1.3-0.3-1.8-0.5
			c-0.8-0.4-1.2-1.1-1.2-2c0.1-1.1,0.1-2.3,0.2-3.4c0.2-2,0.5-4.1,0.6-6.1c0.1-2.1-0.1-4.2-0.2-6.4c-0.2-2.7-0.4-5.4-0.6-8.1
			c-0.5-5.9-0.9-11.9-1.3-17.8c-0.1-1.5-0.2-3.1-0.4-4.6c0-0.3,0-0.7,0-1c0-2.5,0.1-5,0.1-7.6C474,332.3,473.9,331.5,473.7,330.4z"
			/>
		<path fill="#E2866A" d="M347.6,383.6c1,0.6,2,0.4,3,0.4c0.8,0.1,1.6,0,2.4,0.1c0.9,0.1,1.5,0.7,1.6,1.6c0.2,1.4,0,2.8-0.5,4.1
			c-0.3,0.9-1.1,1.1-2,1.2c-0.6,0.1-1.1-0.1-1.7,0c-1.5,0.2-2.9,0.4-4.4,0.7c-0.6,0.1-1.3,0.3-1.9,0.2c-2-0.1-3.9-0.3-5.9-0.5
			c-0.1,0-0.3-0.1-0.5-0.3c-0.2-0.7-0.4-1.5-0.6-2.3c-0.4-2.2,0.5-3.6,2.8-4c0.7-0.1,1.5,0,2.2-0.7c0.1-1.7,0.4-3.6,0.2-5.4
			c-0.6-4.9-0.2-9.8-0.2-14.7c0-4.7-0.1-9.3-0.2-14c0-2.4-0.2-4.9-0.2-7.3c0-0.9,0.3-1.8,0.3-2.7c0.1-2.3,0.1-4.6,0.1-6.9
			c0-0.3-0.1-0.6-0.1-1c-0.1-0.8-0.6-1.3-1.4-1.5c-0.6-0.1-1.1-0.1-1.7-0.2c-1.5-0.2-2.9-0.4-4.1-1.3c-0.4-1.3,0.1-2.1,0.9-2.9
			c0.7-0.7,1.5-1,2.4-0.9c2.1,0.2,4.1-0.2,6.1-0.6c2.8-0.6,5.5-0.4,8.3,0.1c0.8,0.1,0.8,0.1,2.1,1.7c-0.2,1.2-1.1,2-2.2,2.4
			c-0.8,0.3-1.7,0.5-2.6,0.6c-0.7,0.1-1.4,0.1-2.2,0.2c-0.1,0.4-0.3,0.7-0.2,1c0.5,4.3,0,8.5-0.3,12.7c-0.1,1.9-0.1,3.8-0.1,5.6
			c0,5.4,0.1,10.8,0.2,16.2c0,2.7,0.3,5.4,0.1,8.1c-0.1,2.8,0.4,5.5,0,8.3C347.2,382.4,347.5,383,347.6,383.6z"/>
		<path fill="#E2866A" d="M391.8,325.1c0.8,0.8,0.8,1.6,0.8,2.4c-0.1,3.5-0.2,7-0.3,10.5c-0.1,2.7-0.1,5.4-0.1,8.1
			c0,3.6-0.1,7.2-0.1,10.8c0,2.6,0.2,5.2,0.3,7.8c0.2,4.2,0.3,8.3,0.5,12.5c0.1,1.6,0,3.1,0,4.7c0,1.8,0.6,2.3,2.5,2.8
			c0.6,0.2,1.3,0.1,2,0.1c1.3,0,2.6-0.1,3.9-0.2c2.1-0.2,3.5,1.1,3.7,3.3c0.1,2.4-1.3,4.2-3.8,4.6c-1.9,0.3-3.7,0.3-5.5-0.3
			c-1.5-0.6-3.2-0.8-4.7-1.2c-0.8-0.2-1.6-0.6-2.1-1.2c-0.3-0.4-0.6-0.8-0.7-1.2c-0.2-1.1-0.5-2.2-0.5-3.3c0-1.1-0.4-2.2-0.6-3.4
			c-0.2-1.1-0.2-2.3-0.3-3.4c-0.6-5.3-0.4-10.6-0.5-15.9c-0.1-5.9-0.5-11.7,0-17.6c0.2-2.2,0.1-4.4,0.1-6.6
			c-0.1-3.1,0.5-6.2,0.2-9.3c-0.1-0.7,0.1-1.5,0.4-2.1c0.5-1.1,1.2-1.9,2.6-1.8C390.3,325.2,391,325.1,391.8,325.1z"/>
		<path fill="#E2866A" d="M364.7,326.1c1.5-0.2,2.9-1.1,4.6,0c0,0.3,0,0.7-0.1,1.1c-0.2,1.1-0.2,2.2-0.2,3.4
			c0.1,2.2-0.1,4.4-0.2,6.6c-0.2,3.4-0.4,6.8-0.1,10.3c0,0.6-0.1,1.3-0.1,2c0,1.5-0.3,2.9,0,4.4c0.2,0.9,0.1,1.8,0,2.7
			c-0.6,3.4-0.3,6.8-0.4,10.3c-0.1,2.1,0,4.2,0,6.4c0,2.6,0,5.2,0,7.8c0,0.9,0.2,1.8,0.4,2.6c0.3,1,0.6,1.3,1.8,1.3
			c0.7,0,1.5,0,2.2-0.1c2.1-0.3,4,0.5,6,1c0.6,0.2,1.1,0.6,1.2,1.1c0.1,1.1,0.1,2.3,0,3.4c-0.1,0.8-0.7,1.4-1.6,1.7
			c-1.3,0.5-2.6,0.5-3.9,0.5c-2.1-0.1-4.2-0.3-6.4-0.4c-2.1-0.1-3.6-1.5-4.8-3c-0.5-0.6-0.6-1.7-0.5-2.6c0.1-1.2,0.1-2.4-0.1-3.6
			c-0.1-0.6-0.1-1.1-0.1-1.7c0-2.6,0.1-5.2,0.1-7.8c0-2.9-0.1-5.7,0.1-8.6c0.4-4.9,0.1-9.8,0.2-14.7c0-1.6,0.1-3.3,0.1-4.9
			c0-1.2-0.1-2.4-0.2-3.7c-0.1-1.4-0.2-2.7-0.2-4.1c0-2,0-3.9,0-5.9C362.5,329.6,362.8,327.7,364.7,326.1z"/>
	</g>
	<g>
		<path fill="#C66D59" d="M255.2,360.1h-6.8c-0.1,1.1-0.2,2.1-0.2,3.2c0,2.1-0.4,4.2-0.3,6.3c0,0.6,0.1,1.3-0.6,1.9
			c-0.2-0.5-0.5-0.8-0.7-1.3c-0.6-2-1-4.1-1.6-6.1c-0.4-1.4-0.9-2.7-1.5-4.1h-8.1c0.9,2.7,1.7,5.4,2.8,8.1c0.6,1.4,1,2.9,1.4,4.4
			c0.7,2.5,1.1,5.1,2,7.6c0.4,1,0.7,2,0.9,3.1c0.6,3.1,1.9,5.9,3.8,8.3c2.2,0.5,2.8,0.5,4.1,0.2c1.1-0.2,1.7-0.8,1.9-1.9
			c0.3-2.3,0.7-4.5,1.2-6.7c0.5-2.2,0.8-4.3,0.8-6.5c0-2.5,0-5.1-0.1-7.6c-0.1-2.4,0.2-4.7,0.7-7
			C255.1,361.4,255.1,360.7,255.2,360.1z"/>
		<path fill="#C66D59" d="M228.8,375.8c0.1-0.6,0-1.1,0-1.7c0-1.4,0-2.8,0.1-4.2c0.1-2,0.2-3.9,0.2-5.9c0-1.3,0-2.6,0-3.9h-6.7
			c0,2.3-0.1,4.7-0.2,7c-0.1,2.9-0.2,5.9-0.2,8.8c0,2.1,0.1,4.2-0.1,6.4c-0.2,2.8,0.7,5.5,0.2,8.3c-0.2,1.1,0.5,1.9,1.8,2
			c1.5,0.1,3.1,0.2,4.6-0.2c0.8-1.5,0.9-3,0.7-4.6C228.8,383.8,228.4,379.8,228.8,375.8z"/>
		<path fill="#C66D59" d="M639.9,360.1h-6.5c0.2,3,0.2,6,0.3,8.9c0.1,5.1,0.2,10.3,0.3,15.4c0,0.8,0,1.7-0.3,2.4
			c-0.4,1-0.1,1.7,0.3,2.7c1.5-0.1,2.9,1.1,4.5,0.4c1.1-1.7,1-3.5,1-5.4c-0.1-4.3,0.5-8.6,0.3-12.9c0-0.2,0-0.3,0-0.5
			c0.3-1.1,0.1-2.2-0.1-3.4c-0.2-1.3-0.6-2.6-0.1-3.9C640.2,362.6,640.1,361.4,639.9,360.1z"/>
		<path fill="#C66D59" d="M658.1,360.1c0,0.5-0.1,1.1-0.1,1.6c0,0.2-0.1,0.5,0,0.7c0.7,2.1-0.3,4.2,0.3,6.3c0,0.2-0.1,0.4-0.3,0.8
			c-0.4-0.6-0.8-1.1-1-1.6c-0.7-1.9-1.3-3.8-1.9-5.8c-0.2-0.7-0.5-1.4-0.7-2.1h-6.8c0.7,1.7,1.4,3.3,2,5c0.3,0.8,0.5,1.6,0.9,2.3
			c0.6,1.2,1,2.4,1.2,3.7c0.5,3.5,1.5,6.8,2.9,10.1c0.2,0.5,0.4,1.1,0.5,1.6c0.3,1.5,1.1,2.7,2.1,3.8c0.8,0.9,1.8,1.7,3.2,1.6
			c0.9-0.1,1.8-0.3,2.6-0.5c0.9-0.3,1.5-0.9,1.6-1.9c0-0.3,0.1-0.7,0.1-1c0-2,0.1-4.1,0.7-6c0.2-0.8,0.2-1.6,0.1-2.4
			c-0.1-3.3-0.1-6.5,0.1-9.8c0.2-2.1,0.3-4.3,0.5-6.4H658.1z"/>
		<path fill="#C66D59" d="M313.9,386.5c-2-0.3-3.9-1.1-5.8-1.8c-1.2-0.5-2.5-0.8-3.4-1.9c0.2-0.9,0.3-1.8,0.5-2.6
			c0.6-3.5,1.2-7.1,2.1-10.5c0.4-1.6,0.7-3.2,0.6-4.8c-0.1-1.7,0.5-2.4,2.1-2.8c0.8-0.2,1.6-0.3,2.4-0.3c1-0.1,1.7-0.5,2.3-1.2
			c0.1-0.1,0.1-0.2,0.2-0.3h-12.5c1.2,0.8,1.5,2.1,1.4,3.4c-0.2,2.4-0.1,4.9-1,7.2c-0.2,0.6-0.2,1.3-0.3,1.9c-0.4,1.5-0.8,3-1.3,4.4
			c-0.1,0.4-0.5,0.6-0.7,0.9c-0.3-0.2-0.6-0.2-0.7-0.4c-0.9-1-1.9-2.1-2.7-3.2c-0.6-0.8-1.2-1.7-1.3-2.6c-0.4-2.3-1.5-4.3-2.4-6.4
			c-0.7-1.8-1.2-3.6-1.6-5.4h-6c1.1,5,3.5,9.5,5.6,14.1c0.6,1.3,1.5,2.5,2.4,3.7c0.7,1,1.5,1.9,2.2,2.9c0.3,0.4,0.4,0.8,0.7,1.4
			c-0.6,0.4-1,0.8-1.5,0.9c-1.5,0.4-3,0.8-4.5,1c-1.4,0.2-2.6-0.3-3.5-1.3c-0.6-0.7-1.2-1.4-1.6-2.1c-1.8-3.1-3.1-6.5-3.2-10.2
			c-0.1-3.6,0.5-7,1.5-10.5h-4.8c-0.9,2.7-1.6,5.4-1.4,8.2c0.2,2.8,0.5,5.7,0.8,8.5c0.3,3.2,1.5,6,3.5,8.5c0.9,1.1,1.9,1.9,3.2,2.6
			c2,1,4.2,1.3,6.4,1.5c0.9,0.1,1.8,0,2.7-0.2c1.9-0.6,3.8-1,5.7-1.6c1.5-0.4,2.9-0.5,4.2,0.5c0.7,0.5,1.5,0.7,2.1,1.2
			c1.4,0.9,3,1.3,4.6,1.6c2.2,0.4,4-0.4,5.7-1.6c0.6-0.4,0.6-1.3,0-1.7C315.5,387.1,314.7,386.6,313.9,386.5z"/>
		<path fill="#C66D59" d="M101.7,360.1c0.1,1.3,0.2,2.7,0.2,4c0,2.7-0.5,5.4-0.8,8c-0.2,1.8-0.7,3.5-0.9,5.3c-0.4,3-1.9,5.5-3.5,8
			c-0.7,1.1-1.7,1.6-3.1,1.9c0.1-1.8,0.1-3.4,0.2-5c0.1-4.1-0.1-8.2-0.6-12.2c-0.2-1.2-0.3-2.4-0.3-3.7c0-2.1,0-4.3,0-6.4h-7.9
			c0,0,0,0-0.1,0c0,1.4,0,2.8,0,4.2c0,3.3,0.5,6.5,0.3,9.8c-0.1,1.3,0.2,2.6,0.4,3.9c0.2,1.7,0.5,3.4,0.5,5.1c0,3.3-0.1,6.7-0.3,10
			c0,0.7,0.1,1.3,0.6,1.7c0.4,0.3,0.7,0.7,1.1,1.1c2.3,0.1,4.5,0.1,6.7-0.7c2.5-0.8,4.8-2.1,7-3.4c0.4-0.2,0.8-0.6,1.1-0.9
			c1-1.2,1.9-2.5,2.8-3.7c0.4-0.5,0.6-1.2,0.8-1.8c0.5-1.5,1-2.9,1.5-4.4c0.3-1.1,0.6-2.2,0.8-3.3c0.4-2.8,0.6-5.7,0.9-8.5
			c0.1-1.2,0.4-2.4,0.4-3.6c0.1-1.8,0-3.6-0.1-5.5H101.7z"/>
		<path fill="#C66D59" d="M626.4,360.1h-8c0,0.6,0.1,1.3,0.1,1.9c0,2.1-0.3,4.2-0.4,6.3c0,0.5-0.1,1-0.3,1.4
			c-0.6,1.5-0.8,3.2-1.1,4.8c-0.3,2.1-1,4.1-1.8,6.1c-0.5,1.2-1.3,2-2.5,2.5c-0.5,0.2-1,0.5-1.6,0.8c-3.3-3.8-4.5-8.2-4.9-12.9
			c-0.2-2.4-0.1-4.7-0.2-7.1c0-1.3-0.1-2.6-0.2-3.9H599c0,0.1,0,0.2,0,0.3c0.1,1.1,0,2.3,0.1,3.4c0.2,2.9,0.5,5.8,0.8,8.8
			c0.3,3.8,1.2,7.5,2.7,11.1c0.5,1.3,1.3,2.4,2.3,3.4c0.4,0.3,0.8,0.6,1.1,1c0.7,1.2,2,1.5,3,1.9c1.1,0.5,2.6,0.6,3.8,0.4
			c4.2-0.8,7.7-2.7,9.7-6.6c0.1-0.3,0.3-0.7,0.5-0.8c0.9-0.5,0.9-1.3,1.1-2.1c0.7-3.1,1.3-6.2,1.9-9.3c0.2-0.9,0.3-1.8,0.4-2.7
			c0.3-2.2,0.3-4.4,0.1-6.6C626.4,361.6,626.4,360.9,626.4,360.1z"/>
		<path fill="#C66D59" d="M429.5,360.1c0.2,4.7-0.1,9.5-1,14.1c-0.5,2.5-1.2,4.9-2,7.3c-0.5,1.6-1.7,2.5-3,2.4
			c-1.5-0.2-2.8-0.8-4-1.8c-0.3-0.3-0.6-0.8-0.7-1.3c-0.7-2.9-1.4-5.7-1.4-8.7c0-3.7-0.2-7.3-0.7-11c-0.1-0.4,0-0.7,0-1.1h-6.9
			c0,1,0.1,2.1,0.2,3.1c0.2,2.1,0.5,4.2,0.5,6.4c0,4.4,0.6,8.8,1.7,13.1c0.7,2.5,1.7,4.8,4.1,6.5c1.8,1.3,3.7,1.4,5.7,1.5
			c2.3-0.9,4.7-1.6,6.5-3.3c1.7-1.7,2.9-3.7,3.6-6c0.5-1.8,1.1-3.6,1.5-5.4c0.6-2.9,1.2-5.7,1.3-8.7c0-1.8,0.2-3.6,0.3-5.4
			c0.1-0.5,0.1-1.1,0.2-1.6H429.5z"/>
		<path fill="#C66D59" d="M508.1,370.6c-0.9-3.5-1.5-7-2-10.5h-13.7c0,0.5,0,1.1,0,1.6c-0.2,3.6,0.2,7.2,0.3,10.8
			c0,1.5,0.4,2.9,0.3,4.4c-0.1,2.2-0.1,4.4,0.4,6.6c0.4,1.8,0.4,3.5,0.4,5.3c0,0.1,0.1,0.3,0.3,0.6c1.5,0.6,2.9-0.1,4.8-0.4
			c0.2-0.8,0.5-1.5,0.5-2.2c0.1-2.4,0.1-4.9,0-7.4c-0.2-4.5-0.5-9-0.7-13.5c0-0.7,0.2-1.4,0.4-2.2c0.1-0.3,0.3-0.5,0.4-0.7
			c0.9,0.2,1.1,0.9,1.2,1.5c0.5,1.8,0.9,3.6,1.3,5.5c0.7,3.5,1.4,7.1,2.1,10.6c0.5,2.5,1.5,4.8,2.9,7c1.1,1.8,2.7,2.3,4.6,2
			c0.8-0.1,1.2-0.7,1.1-1.4c-0.2-1-0.4-1.9-0.6-2.9C510.8,380.4,509.4,375.5,508.1,370.6z"/>
		<path fill="#C66D59" d="M214.9,364.3c-0.1-1-0.6-1.5-1.6-1.6c-3.1-0.4-6.2-0.7-9.3-0.3c-1.4,0.2-2.2,1-2.7,2.1
			c-0.7,1.6,0.5,3.7,2.3,3.8c1,0,1.9-0.1,2.9-0.2c1.2-0.1,1.6,0.2,1.8,1.4c0.5,3.7,0.4,7.3,0,11c-0.1,0.9-0.5,1.9-1,2.7
			c-1.2,2-3.4,2.6-5.6,1.7c-1-0.4-1.8-1.1-2.3-2.1c-0.6-1.2-1.1-2.4-1.5-3.6c-0.8-2.4-1.5-4.8-2.1-7.3c-0.3-0.9-0.5-1.9-0.5-2.9
			c0-3-0.1-6,0.2-8.9h-7.7c0,1.3,0,2.5,0.1,3.8c0,0,0,0,0,0c0.1,1.6,0.3,3.3,0.2,4.9c-0.1,5.2,0.8,10.3,2.2,15.2
			c1.7,5.6,5.9,8.1,11.6,8.5c1.1,0.1,2.3-0.1,3.4-0.1c3.9-0.2,6.6-2.3,8.4-5.5c0.8-1.5,1-3.3,1-5c0-1.2-0.2-2.5,0.1-3.7
			c0.3-1.6,0.3-3.3,0.2-4.9c0-2.4-0.2-4.7,0.1-7.1C215,365.6,215,365,214.9,364.3z"/>
		<path fill="#C66D59" d="M541.3,375c-0.2-2.6-0.5-5.2-0.8-7.8c-0.3-2.3-0.4-4.7-0.5-7h-5c0.2,1.9,0.4,3.8,0.7,5.7
			c0.1,1.3,0.2,2.6-0.2,4.2c-2.9-0.3-5.6-0.6-8.5-0.9c-0.1-1.6,0-3,0.3-4.5c0.3-1.5,0.3-3,0.3-4.6h-3.9c0,0.2-0.1,0.4-0.1,0.6
			c-1,3.6-1.4,7.2-2.1,10.8c-0.5,2.4-0.8,4.9-1.7,7.1c-1.3,3.2-1.7,6.6-3.1,10c0.6,0.4,1,0.7,1.5,0.8c1.2,0.4,2.3,0.8,3.5,1.1
			c1.2,0.4,2.3,0,2.9-1.1c0.3-0.5,0.6-1.2,0.7-1.8c0.4-1.9,0.7-3.9,1.1-5.8c0.3-1.5,0.8-3,1.3-4.5c0.5-1.4,1-1.6,2.4-1.4
			c0.2,0,0.5,0.1,0.7,0.1c3.4,0.3,3.4,0.7,4.3,4c0.6,2.4,1.1,4.8,1.7,7.2c0.1,0.5,0.2,1,0.4,1.4c0.4,1,2.5,1.7,3.4,1.2
			c1.4-0.8,2.2-2.4,1.9-4.1c-0.2-1.4-0.5-2.7-0.6-4.1C541.6,379.5,541.5,377.2,541.3,375z"/>
		<path fill="#C66D59" d="M589.5,381.4c-1.1,0-2.3,0-3.4,0c-0.2-0.5-0.5-0.8-0.5-1.2c-0.3-2.3-1-4.6-0.7-7.1
			c0.1-0.7-0.1-1.5-0.1-2.2c0-2.5,0-5.1-0.1-7.6c0-0.6,0-1.1,0-1.7c0-0.5,0-1,0-1.5h-6.2c0.1,2.7,0.1,5.4,0.2,8.1
			c0.1,2.7,0.5,5.4,0.7,8c0.1,1.9,0.3,3.9-0.4,5.8c-1.2,0.2-2.3,0.3-3.4,0.6c-1.4,0.3-1.9,0.9-1.9,2.2c0,1.3,0.1,2.6,0.3,3.9
			c0.2,1.1,1.2,1.7,2.3,1.6c0.5-0.1,1-0.1,1.4-0.1c4,0,8-0.1,12-0.1c0.2,0,0.5,0,0.7-0.1c0.8-0.2,1.3-0.6,1.4-1.5
			c0-1.6,0.2-3.3,0.1-4.9C592,382.1,591.1,381.4,589.5,381.4z"/>
		<path fill="#C66D59" d="M131.8,388.1c-0.5-0.2-1.1-0.3-1.7-0.3c-1.5,0-3.1,0.1-4.6,0.1c-0.6,0-1.3,0.3-2-0.4
			c0-0.2-0.1-0.5-0.1-0.8c-0.1-3.8,0-7.5-0.1-11.3c-0.1-2.8,0.2-5.5,0.1-8.3c-0.1-2.3,0.2-4.6,0.7-7h-7.3c0.2,2.9,0.4,5.8,0.6,8.8
			c0.1,1.6,0,3.3,0,4.9c0,0.8-0.2,1.6-0.1,2.4c0.2,4.5,0.4,9,0.7,13.4c0.1,1.4,0.3,2.8,1.5,3.8c0.8,0,1.6,0,2.4,0c0.5,0,1-0.1,1.4,0
			c1.7,0.5,3.4,0.6,5.1,0.6c1.1,0.1,2.3-0.1,3.4-0.2c0.7-0.1,1.2-0.5,1.4-1.2c0.2-0.8,0.4-1.6,0.4-2.4
			C133.4,389.2,132.7,388.5,131.8,388.1z"/>
		<path fill="#C66D59" d="M460,360.1h-8.7c0.7,1.5,1.4,3.1,2.2,4.6c1,1.9,1.7,4,1.8,6.1c0.2,2.3-0.1,4.7-0.9,7
			c-1.2,3.4-3.3,6-7.1,6.6c-0.5,0.1-1,0.2-1.4,0.3c-0.9,0.2-1.7,0.6-2.3,1.3c-0.4,1-0.2,1.9,0.1,2.9c0.6,1.6,1.9,2.4,3.6,2.2
			c0.7-0.1,1.4-0.2,2.2-0.3c2.7-0.5,5.2-1.5,6.9-3.7c0.8-1.1,1.8-2.1,2.6-3.2c1.6-2,2.6-4.4,2.8-6.9c0.4-4.7,0.3-9.3-0.7-13.9
			C460.8,362,460.4,361.1,460,360.1z"/>
		<path fill="#C66D59" d="M562.4,373.3c0.1-3.8-0.3-7.7-0.5-11.5c0-0.5-0.1-1.1-0.1-1.6h-6.6c0,0.5,0,1,0,1.5
			c0.1,3.7,0.1,7.4,0.5,11c0.3,2.9,0.4,5.9,0.6,8.8c0,0.5,0,1,0,1.5c0,1.8,0,3.6,0.1,5.4c0,0.5,0.3,1.1,0.6,1.8c1.2,0,2.2,0.1,3.1,0
			c1.9-0.1,3-1.5,3.9-3c0.2-0.3,0.3-0.8,0.2-1.2c-0.2-1.4-0.6-2.9-0.7-4.3C563.5,378.8,562.3,376.2,562.4,373.3z"/>
		<path fill="#C66D59" d="M153.6,361.7c-0.1-0.5-0.3-1-0.4-1.5h-7.7c0.3,0.7,0.7,1.4,1,2.1c0.4,0.8,0.8,1.6,1.1,2.5
			c0.9,2.2,1.8,4.4,2.5,6.6c0.4,1.2,0.5,2.6,0.6,3.9c0,0.5-0.1,1.2-0.4,1.6c-0.4,0.6-0.6,1.1-0.6,1.8c0.2,2.2-0.4,4.4-1,6.5
			c-0.2,0.8-0.6,1.3-1.3,1.7c-1.2,0.7-2.4,0.9-3.8,1c-1,0.1-1.9,0.4-2.7,1c-0.6,0.4-1.4,0.7-1.5,1.5c-0.1,0.9-0.1,1.9,0.5,2.6
			c0.5,0.6,1.2,1,1.9,1.5c1.3-0.8,1.3-0.8,2-0.7c1.1,0.1,2.3,0.2,3.4,0.2c0.8,0,1.7-0.1,2.3-0.5c1.4-0.8,2.7-1.8,3.7-3.2
			c1.9-2.8,2.9-5.9,3.7-9c0.3-0.9,0.3-2,0.2-2.9c-0.6-4.2-1.2-8.4-2.6-12.5C154.1,364.4,153.9,363,153.6,361.7z"/>
		<path fill="#C66D59" d="M179.5,386.3c-1.4,0-2.8-0.3-4.1-0.6c-0.8-0.1-1.1-0.5-1.2-1.3c-0.1-0.7-0.1-1.3,0-2
			c0.1-3.9,0.1-7.8,0.2-11.7c0-0.2,0-0.5,0-0.7c0.5-1.6,0.2-3.3-0.1-4.8c-0.3-1.5-0.3-3.1-0.2-4.6c0-0.1,0-0.2,0-0.4h-4.8
			c0,0.5,0,0.9,0,1.4c-0.2,3.7-0.6,7.3-0.1,11c0.1,1,0.3,1.9,0.3,2.9c0,1.7,0,3.5-0.3,5.1c-0.3,1.7-0.4,3.4-0.7,5
			c0,0.2-0.1,0.3-0.3,0.7c-0.7,0.2-1.3,0.2-1.9,0.5c-0.7,0.2-1.4,0.7-1.5,1.5c-0.2,2,0,3.9,1.1,5.7c1.5-0.4,2.9-0.5,4.4,0.1
			c0.4,0.2,1,0.1,1.4,0c2.5-0.7,5.1-0.9,7.8-0.9c2.3,0,3.3-1,3.3-3.3C182.7,387.6,181.9,386.3,179.5,386.3z"/>
		<path fill="#C66D59" d="M483,378.6c0-2.3-0.3-4.7-0.8-7c-0.8-3.8-0.9-7.6-1.3-11.4h-5.6c0.1,1.4,0.2,2.7,0.3,4.1
			c0.2,2.7,0.4,5.4,0.6,8.1c0.1,2.1,0.3,4.2,0.2,6.4c-0.1,2-0.4,4.1-0.6,6.1c-0.1,1.1-0.1,2.3-0.2,3.4c-0.1,0.9,0.4,1.6,1.2,2
			c0.6,0.3,1.2,0.5,1.8,0.5c1.1,0.1,2.1,0,3.2,0c0.9,0.1,1.7-0.9,1.8-1.7c0-0.4,0-0.8-0.1-1.2C483.3,384.7,483,381.7,483,378.6z"/>
		<path fill="#C66D59" d="M353.1,384.1c-0.8-0.1-1.6-0.1-2.4-0.1c-1-0.1-2,0.2-3-0.4c-0.1-0.6-0.4-1.2-0.3-1.8
			c0.4-2.8-0.1-5.5,0-8.3c0.1-2.7-0.1-5.4-0.1-8.1c0-1.7,0-3.5-0.1-5.2h-4.9c0,1.3,0,2.6,0,4c0,4.9-0.4,9.8,0.2,14.7
			c0.2,1.8-0.1,3.7-0.2,5.4c-0.8,0.7-1.5,0.5-2.2,0.7c-2.3,0.4-3.2,1.8-2.8,4c0.2,0.8,0.4,1.6,0.6,2.3c0.3,0.1,0.4,0.2,0.5,0.3
			c2,0.2,3.9,0.4,5.9,0.5c0.6,0,1.3-0.1,1.9-0.2c1.5-0.2,2.9-0.5,4.4-0.7c0.6-0.1,1.2,0.1,1.7,0c0.8-0.1,1.7-0.3,2-1.2
			c0.5-1.3,0.7-2.7,0.5-4.1C354.6,384.8,354,384.3,353.1,384.1z"/>
		<path fill="#C66D59" d="M401.3,384.7c-1.3,0.1-2.6,0.2-3.9,0.2c-0.7,0-1.3,0-2-0.1c-1.9-0.5-2.5-1-2.5-2.8c0-1.6,0-3.1,0-4.7
			c-0.1-4.2-0.3-8.3-0.5-12.5c-0.1-1.6-0.1-3.1-0.2-4.7h-6c0,0.8,0,1.6,0,2.4c0.1,5.3-0.2,10.6,0.5,15.9c0.1,1.1,0.1,2.3,0.3,3.4
			c0.2,1.1,0.6,2.2,0.6,3.4c0,1.1,0.3,2.2,0.5,3.3c0.1,0.4,0.4,0.9,0.7,1.2c0.5,0.7,1.3,1,2.1,1.2c1.6,0.4,3.2,0.6,4.7,1.2
			c1.9,0.7,3.7,0.6,5.5,0.3c2.5-0.4,3.9-2.1,3.8-4.6C404.8,385.8,403.4,384.5,401.3,384.7z"/>
		<path fill="#C66D59" d="M378.5,385.9c-2-0.6-3.9-1.4-6-1c-0.7,0.1-1.5,0.1-2.2,0.1c-1.1,0-1.5-0.3-1.8-1.3
			c-0.2-0.9-0.4-1.8-0.4-2.6c0-2.6,0-5.2,0-7.8c0-2.1,0-4.2,0-6.4c0.1-2.2,0.1-4.4,0.2-6.6h-5.7c0,1.6,0,3.1-0.1,4.7
			c-0.2,2.8-0.1,5.7-0.1,8.6c0,2.6-0.1,5.2-0.1,7.8c0,0.6,0,1.1,0.1,1.7c0.2,1.2,0.3,2.4,0.1,3.6c-0.1,0.8,0,1.9,0.5,2.6
			c1.2,1.5,2.6,2.9,4.8,3c2.1,0.1,4.2,0.3,6.4,0.4c1.3,0,2.6,0,3.9-0.5c0.9-0.3,1.5-0.9,1.6-1.7c0.2-1.1,0.1-2.3,0-3.4
			C379.6,386.4,379,386.1,378.5,385.9z"/>
	</g>
</g>
</svg>
